<?xml version="1.0" standalone="no"?>
<!DOCTYPE svg PUBLIC "-//W3C//DTD SVG 20010904//EN"
 "http://www.w3.org/TR/2001/REC-SVG-20010904/DTD/svg10.dtd">
<svg version="1.0" xmlns="http://www.w3.org/2000/svg"
 width="1000.000000pt" height="1000.000000pt" viewBox="0 0 1000.000000 1000.000000"
 preserveAspectRatio="xMidYMid meet">
<metadata>
Created by potrace 1.11, written by Peter Selinger 2001-2013
</metadata>
<g transform="translate(0.000000,1000.000000) scale(0.100000,-0.100000)"
fill="#000000" stroke="none">
<path d="M7630 9977 c0 -13 -3 -27 -7 -31 -4 -3 -8 -14 -9 -24 -1 -9 -7 -46
-13 -82 -5 -36 -13 -96 -16 -134 -11 -116 -44 -132 -200 -100 -43 9 -94 14
-113 10 -19 -3 -107 1 -195 10 -108 9 -204 12 -291 8 -72 -4 -147 -6 -166 -5
-138 8 -383 7 -475 -1 -60 -5 -135 -11 -165 -13 -30 -2 -75 -8 -98 -13 -24 -5
-52 -8 -61 -5 -39 10 -286 -63 -382 -113 -15 -7 -29 -22 -32 -34 -4 -15 -13
-20 -38 -20 -22 0 -43 -9 -64 -28 -16 -16 -51 -36 -76 -46 -55 -20 -113 -68
-279 -230 -69 -67 -152 -142 -185 -166 -104 -75 -187 -169 -212 -237 -13 -38
-18 -65 -12 -74 13 -21 11 -68 -5 -114 -35 -99 -49 -192 -42 -292 3 -54 9
-147 12 -208 8 -170 3 -163 75 -110 34 25 69 45 80 45 10 0 22 8 28 17 7 13
12 14 23 6 7 -6 36 -9 65 -7 38 2 55 -1 64 -12 11 -14 9 -20 -13 -39 -19 -16
-25 -29 -21 -44 4 -17 2 -20 -12 -15 -13 5 -16 3 -13 -7 3 -8 11 -13 17 -11 7
1 10 -2 6 -7 -3 -6 -13 -7 -23 -4 -9 3 -14 3 -10 -1 3 -4 2 -21 -3 -38 -4 -17
-5 -36 -2 -42 4 -6 10 0 13 14 3 14 12 25 20 25 25 0 17 -24 -15 -45 -16 -11
-27 -20 -23 -20 4 0 -4 -16 -17 -36 -13 -19 -27 -44 -30 -55 -4 -10 -11 -19
-16 -19 -6 0 -8 -4 -4 -9 22 -36 -89 -150 -130 -135 -8 4 -26 -4 -39 -17 -19
-18 -22 -28 -15 -41 7 -13 6 -18 -3 -16 -7 2 -12 -2 -11 -8 1 -7 -6 -10 -17
-7 -11 3 -16 11 -13 19 3 8 -1 14 -8 14 -11 0 -11 3 1 10 12 8 9 10 -12 10
-16 0 -29 -6 -30 -12 0 -7 -2 -18 -2 -23 -1 -6 -11 -24 -24 -39 -12 -16 -22
-36 -22 -45 0 -9 -6 -25 -13 -36 -14 -21 -27 -67 -33 -121 -1 -17 -12 -55 -23
-84 -18 -48 -19 -57 -7 -82 9 -17 11 -30 5 -34 -6 -3 -8 -13 -5 -21 3 -8 3
-20 -1 -26 -10 -17 -11 -47 -1 -41 4 3 8 0 8 -5 0 -6 -4 -11 -10 -11 -5 0 -10
-6 -10 -14 0 -8 -4 -16 -10 -18 -6 -2 -3 -15 6 -33 9 -18 11 -31 5 -33 -6 -2
-8 -16 -4 -33 4 -22 2 -29 -11 -29 -9 0 -16 -4 -16 -10 0 -5 5 -10 10 -10 6 0
10 -4 10 -10 0 -14 -27 -12 -33 3 -2 6 -4 0 -3 -15 1 -20 4 -24 14 -16 7 6 16
8 19 4 4 -4 3 -10 -3 -14 -5 -4 -9 -18 -8 -31 1 -23 1 -24 -12 -6 -8 10 -14
13 -14 7 0 -7 10 -22 22 -34 17 -17 18 -20 4 -15 -15 6 -18 3 -14 -18 4 -21 3
-23 -9 -14 -7 7 -16 9 -19 6 -8 -8 9 -36 21 -36 5 0 11 -4 13 -10 2 -6 -3 -11
-11 -11 -9 0 -18 -9 -22 -19 -8 -25 -41 -36 -60 -21 -11 9 -15 9 -15 1 0 -6 7
-14 15 -17 8 -4 15 -12 15 -19 0 -7 6 -16 13 -18 7 -3 5 -6 -5 -6 -10 -1 -18
-8 -18 -16 0 -13 -4 -14 -21 -5 -19 11 -20 10 -9 -9 12 -23 1 -28 -18 -9 -9 9
-12 6 -12 -14 0 -15 -7 -29 -17 -32 -11 -5 -13 -10 -7 -14 14 -9 14 -41 0 -36
-7 3 -24 -22 -39 -55 -15 -33 -32 -63 -38 -67 -6 -3 -19 -24 -29 -46 -14 -32
-16 -48 -8 -81 11 -50 3 -100 -18 -118 -18 -15 -54 -23 -54 -11 0 7 -48 14
-107 16 -18 1 -33 3 -33 6 0 3 -16 6 -35 7 -52 3 -65 5 -65 15 0 4 -11 8 -24
8 -14 0 -38 11 -54 25 -17 14 -45 26 -66 27 -20 2 -36 6 -36 10 0 5 -6 7 -12
5 -7 -1 -12 4 -10 12 2 9 -3 11 -13 7 -9 -3 -25 -1 -35 4 -11 6 -21 6 -24 1
-3 -5 -21 -5 -40 -1 -22 5 -38 4 -45 -3 -6 -6 -11 -7 -11 -1 0 5 -21 9 -48 8
-26 0 -50 4 -54 9 -4 6 -12 4 -22 -5 -8 -9 -12 -18 -9 -22 4 -3 2 -6 -4 -6
-17 0 -13 -70 6 -109 23 -43 131 -116 191 -127 8 -2 31 -20 51 -41 19 -21 48
-49 65 -63 16 -14 30 -34 32 -44 6 -32 -18 -73 -54 -92 -19 -10 -34 -24 -34
-31 0 -8 -12 -13 -29 -13 -16 0 -34 -6 -40 -14 -7 -8 -26 -18 -42 -21 -16 -4
-29 -11 -29 -16 0 -5 -6 -9 -13 -9 -18 0 -51 -30 -62 -55 -28 -69 -5 -93 97
-99 40 -3 73 -6 73 -6 0 -5 217 -22 303 -23 6 0 12 -3 12 -7 0 -4 24 -8 53 -8
28 0 54 -1 57 -2 3 -1 37 -4 75 -6 39 -2 81 -7 95 -12 14 -4 41 -7 60 -7 32 0
36 4 50 43 27 78 39 44 28 -78 -4 -41 -5 -76 -3 -79 3 -2 11 2 20 9 9 7 18 10
22 6 3 -3 2 -6 -3 -6 -5 0 -18 -7 -29 -16 -17 -13 -18 -16 -5 -24 13 -8 12
-11 -6 -16 -15 -4 -21 -14 -22 -35 0 -17 -6 -37 -12 -44 -8 -10 -8 -19 0 -34
8 -16 8 -19 -3 -15 -8 3 -20 -10 -30 -31 -17 -36 -17 -36 3 -30 15 5 12 -2
-13 -26 -21 -21 -28 -34 -19 -37 10 -3 10 -7 1 -18 -9 -11 -8 -21 4 -46 16
-33 13 -54 -3 -28 -6 9 -10 10 -10 3 0 -6 7 -18 15 -27 16 -16 20 -31 6 -22
-5 3 -11 -4 -14 -15 -4 -16 -2 -19 10 -15 13 5 14 4 3 -9 -7 -8 -10 -15 -6
-15 4 0 -3 -18 -14 -40 -23 -45 -25 -61 -7 -55 14 6 15 -151 2 -282 -8 -73
-16 -87 -33 -57 -6 11 -11 13 -16 5 -13 -20 -23 -12 -24 19 -1 41 -9 50 -43
50 -17 0 -49 4 -72 9 -122 27 -195 42 -222 46 -16 2 -50 9 -75 16 -25 6 -54
13 -65 15 -79 15 -237 76 -295 113 -18 12 -52 16 -135 17 -91 1 -123 5 -188
27 -42 15 -86 27 -96 27 -10 0 -21 3 -25 8 -4 4 -17 7 -29 8 -12 1 -34 6 -49
12 -15 6 -35 9 -43 6 -8 -4 -15 -1 -15 5 0 16 -42 13 -68 -5 -18 -12 -21 -19
-11 -30 6 -7 16 -11 22 -7 6 3 7 1 3 -6 -14 -21 101 -100 125 -85 5 3 9 2 9
-3 0 -10 39 -24 175 -63 133 -38 214 -67 242 -86 13 -8 28 -12 33 -9 6 3 10 1
10 -4 0 -6 4 -11 9 -11 5 0 20 -4 33 -9 13 -5 26 -9 31 -10 18 -2 67 -32 67
-41 0 -6 9 -10 20 -10 11 0 20 -4 20 -8 0 -5 11 -14 24 -21 13 -7 29 -24 35
-38 14 -30 14 -46 1 -38 -5 3 -10 -1 -10 -11 0 -11 -6 -15 -20 -11 -11 3 -18
2 -15 -3 8 -13 -17 -18 -80 -15 -70 4 -157 20 -185 35 -10 6 -23 9 -27 8 -11
-3 -74 11 -98 22 -18 7 -57 18 -93 26 -6 1 -31 11 -55 22 -46 21 -109 41 -144
45 -12 2 -26 6 -29 10 -14 14 -89 6 -110 -11 -38 -30 -56 -69 -49 -101 6 -29
59 -91 77 -91 10 0 62 -23 185 -81 45 -22 85 -39 88 -39 6 0 75 -30 129 -56
16 -7 32 -11 37 -8 5 3 9 1 9 -3 0 -5 24 -17 53 -27 28 -10 66 -24 82 -31 17
-7 53 -20 80 -30 28 -10 64 -23 80 -31 27 -12 152 -61 200 -79 11 -5 29 -10
39 -12 11 -2 24 -7 30 -12 6 -4 38 -18 71 -31 33 -13 71 -31 85 -39 13 -9 24
-14 25 -12 0 5 77 -19 90 -29 6 -4 28 -13 50 -20 22 -7 59 -23 83 -36 24 -13
60 -26 80 -30 102 -17 209 -63 249 -106 32 -34 46 -77 32 -95 -19 -23 -139 -7
-234 32 -44 17 -116 45 -160 60 -44 15 -89 32 -100 38 -11 6 -22 12 -25 12 -3
1 -16 6 -30 12 -14 7 -61 26 -105 43 -44 17 -89 35 -100 40 -11 5 -74 26 -140
46 -66 20 -124 40 -130 44 -5 4 -35 15 -65 24 -30 10 -62 20 -70 22 -8 3 -15
4 -16 2 0 -2 -8 3 -16 10 -22 18 -104 27 -113 12 -4 -7 2 -25 14 -41 11 -15
21 -32 21 -37 0 -11 115 -150 180 -217 78 -82 105 -102 204 -155 52 -27 124
-67 160 -89 64 -40 147 -81 156 -78 3 1 19 -8 35 -19 31 -22 124 -67 185 -89
19 -7 70 -29 113 -49 42 -20 79 -36 82 -36 2 0 35 -14 72 -31 162 -75 189 -87
212 -94 13 -4 39 -22 57 -40 35 -36 94 -143 94 -172 0 -42 -70 -117 -115 -123
-5 -1 -17 -6 -26 -10 -11 -6 -26 -1 -50 19 -19 16 -77 49 -129 75 -52 26 -116
58 -142 72 -27 13 -54 24 -60 24 -7 0 -35 11 -63 25 -27 13 -54 25 -58 25 -5
0 -21 8 -35 18 -15 10 -43 25 -62 32 -19 7 -41 18 -48 24 -8 5 -23 11 -34 13
-20 3 -75 25 -111 44 -10 5 -23 7 -29 3 -5 -4 -14 -1 -18 6 -5 8 -17 10 -33 6
-23 -5 -24 -9 -16 -43 4 -21 20 -67 34 -103 14 -36 30 -83 36 -105 5 -22 12
-49 15 -60 9 -33 22 -206 20 -268 0 -31 2 -57 7 -57 4 0 7 -9 7 -20 0 -11 -5
-20 -12 -20 -9 0 -9 -3 -1 -11 6 -6 9 -18 6 -26 -5 -12 -7 -12 -15 -1 -5 8 -6
3 -2 -14 4 -20 2 -29 -10 -34 -9 -3 -16 -13 -16 -22 0 -8 -3 -13 -6 -9 -6 6
-54 -57 -54 -71 0 -5 -16 -25 -35 -46 -19 -21 -35 -44 -35 -51 0 -7 -7 -15
-15 -19 -8 -3 -15 -14 -15 -24 0 -10 -5 -23 -12 -30 -8 -8 -8 -15 2 -27 10
-12 10 -15 -4 -15 -10 0 -25 -19 -38 -50 -12 -28 -28 -50 -35 -50 -8 0 -11 -4
-8 -10 3 -5 2 -10 -3 -10 -5 0 -27 -16 -48 -35 -21 -19 -55 -45 -74 -58 -19
-12 -40 -33 -46 -45 -6 -12 -14 -19 -17 -16 -3 4 -12 -5 -18 -20 -7 -14 -17
-26 -23 -26 -10 0 -26 -21 -71 -88 -5 -8 -46 -52 -91 -98 -88 -89 -79 -85
-181 -68 -49 8 -112 -6 -190 -42 -29 -13 -59 -21 -68 -18 -8 4 -15 2 -15 -3 0
-13 -144 -45 -165 -37 -8 3 -15 1 -15 -6 0 -6 -4 -8 -10 -5 -5 3 -10 1 -10 -4
0 -6 -9 -11 -20 -11 -11 0 -20 -5 -20 -11 0 -6 -6 -9 -12 -6 -7 2 -12 10 -10
16 1 6 -2 11 -8 11 -13 0 -13 -13 0 -26 16 -16 1 -43 -26 -50 -13 -3 -22 -10
-19 -14 4 -7 -67 -70 -80 -70 -4 0 -28 -16 -53 -36 -66 -50 -212 -135 -222
-129 -4 3 -10 -1 -13 -8 -2 -7 -24 -22 -48 -35 -24 -13 -51 -26 -59 -31 -48
-26 -62 -31 -80 -31 -11 0 -20 -7 -20 -15 0 -8 -3 -14 -7 -13 -12 3 -97 -23
-109 -33 -13 -11 -24 -2 -24 20 0 15 56 76 69 76 13 0 81 47 81 56 0 5 9 9 20
9 11 0 20 5 20 10 0 6 5 10 11 10 6 0 25 10 42 23 18 13 54 34 82 48 27 13 55
29 62 36 7 6 29 17 48 24 19 7 35 17 35 21 0 4 8 8 19 8 10 0 24 7 31 15 7 8
18 15 25 15 7 0 24 9 39 21 14 11 26 17 26 12 0 -4 5 0 11 10 5 9 14 17 20 17
5 0 22 11 37 25 15 14 32 25 39 25 7 0 13 5 13 10 0 6 6 10 13 10 8 0 22 10
33 22 10 12 13 18 7 14 -8 -4 -5 11 7 39 24 57 25 61 3 44 -15 -12 -16 -12
-10 4 7 19 -3 23 -19 7 -7 -7 -19 -8 -37 -1 -17 7 -28 7 -32 1 -4 -6 -12 -10
-20 -10 -8 0 -35 -14 -61 -31 -25 -18 -59 -32 -74 -33 -16 -1 -26 -4 -23 -9 2
-4 -6 -5 -19 -3 -13 2 -22 10 -20 17 2 9 -1 9 -14 -2 -16 -13 -16 -12 -6 8 7
12 21 24 31 28 11 3 22 19 26 35 4 17 11 30 17 30 6 0 7 7 4 16 -6 14 -4 15
10 4 13 -12 17 -11 25 1 5 8 7 18 6 24 -5 14 25 45 36 38 6 -4 8 0 4 9 -3 9 0
21 6 27 8 8 6 11 -6 11 -10 0 -20 -7 -23 -15 -4 -8 -11 -15 -17 -15 -5 0 -2 9
8 20 10 11 13 20 7 20 -6 0 -17 -9 -25 -20 -10 -14 -20 -18 -32 -13 -14 5 -17
3 -12 -10 5 -12 1 -17 -13 -17 -11 0 -20 -6 -20 -12 -1 -13 -55 -78 -66 -78
-9 0 -34 -28 -34 -39 0 -6 -7 -11 -16 -11 -8 0 -12 -4 -9 -10 4 -6 -5 -10 -20
-10 -14 0 -24 -4 -21 -8 2 -4 1 -14 -4 -22 -7 -11 -11 -11 -24 3 -22 22 -20
46 6 71 13 12 29 32 37 44 8 11 19 18 25 15 5 -4 7 1 3 10 -3 10 -2 17 3 17 5
0 17 14 25 31 14 27 57 75 182 205 17 18 33 30 36 27 3 -2 8 5 12 16 3 12 10
21 15 21 4 0 10 13 12 30 3 20 1 27 -6 21 -6 -5 -24 -6 -39 -4 -16 2 -35 -1
-43 -8 -8 -6 -14 -8 -14 -3 0 5 -4 4 -8 -1 -4 -6 -34 -24 -67 -40 -33 -17 -71
-40 -85 -52 -37 -32 -64 -54 -107 -89 -21 -18 -50 -43 -65 -57 -16 -14 -34
-30 -40 -34 -7 -4 -32 -29 -55 -55 -23 -25 -44 -43 -47 -40 -3 3 -6 0 -6 -6 0
-12 -16 -32 -73 -96 -15 -17 -27 -36 -27 -42 0 -7 -7 -14 -15 -18 -8 -3 -15
-12 -15 -20 0 -8 -20 -27 -45 -43 -24 -15 -44 -32 -45 -36 0 -5 6 -5 12 -1 10
5 10 4 0 -7 -10 -11 -16 -11 -34 0 -18 11 -20 11 -15 -3 8 -20 0 -20 -19 -1
-14 13 -14 15 2 15 14 0 15 3 3 18 -11 14 -11 15 1 4 21 -18 32 -14 25 10 -6
17 -4 20 9 15 14 -6 15 -3 5 14 -6 12 -7 19 -1 15 5 -3 12 1 15 8 3 8 1 17 -6
19 -9 3 -8 8 2 18 9 9 11 9 7 2 -4 -7 -3 -13 2 -13 5 0 12 14 16 31 4 22 10
30 21 25 8 -3 14 -2 13 2 -4 14 13 52 23 52 6 0 7 4 4 10 -3 6 1 7 10 4 13 -5
15 -1 10 22 -5 20 -4 25 3 16 7 -11 10 -9 15 7 3 14 0 21 -9 21 -10 0 -8 6 6
20 11 11 20 25 20 30 0 6 8 10 18 10 15 0 15 2 2 11 -12 9 -11 10 8 6 12 -3
22 -3 22 0 0 12 -38 52 -44 46 -3 -3 -6 -2 -6 4 0 6 7 14 16 17 23 9 27 8 20
-9 -3 -8 -1 -15 4 -15 16 0 11 36 -6 51 -12 10 -20 10 -35 1 -24 -15 -39 -15
-39 -1 0 6 6 9 13 6 26 -10 32 18 9 40 -19 19 -24 20 -28 8 -4 -8 -10 -13 -14
-10 -10 6 -1 45 11 45 5 0 9 7 9 16 0 10 -6 14 -15 10 -8 -3 -15 -1 -15 4 0 6
5 10 11 10 18 0 -14 42 -39 51 -16 6 -20 5 -15 -7 3 -9 -2 -14 -16 -14 -12 0
-21 4 -21 9 0 5 -8 12 -17 15 -15 6 -15 5 1 -13 10 -11 13 -22 8 -25 -6 -3
-12 1 -16 9 -3 8 -10 15 -16 15 -6 0 -9 -4 -6 -9 9 -14 -5 -42 -16 -35 -5 3
-7 18 -3 33 l6 26 -21 -23 c-11 -12 -18 -27 -15 -32 3 -6 1 -10 -5 -10 -6 0
-9 -4 -5 -9 3 -6 -4 -9 -15 -8 -17 1 -18 3 -6 22 15 22 1 45 -22 37 -6 -2 -12
4 -12 13 0 11 -5 15 -15 11 -8 -3 -23 -9 -32 -13 -12 -5 -15 -2 -10 10 5 13 1
17 -14 17 -16 0 -19 -4 -14 -22 6 -22 6 -22 -14 2 -16 19 -23 22 -29 12 -5 -7
-26 -14 -48 -16 -21 -1 -38 -8 -37 -13 1 -6 -9 -10 -23 -8 -13 1 -22 0 -20 -3
8 -8 -23 -33 -43 -35 -11 0 -17 -5 -14 -11 4 -5 -1 -7 -10 -3 -8 3 -21 0 -27
-8 -6 -8 -17 -13 -23 -11 -7 1 -9 1 -4 -1 12 -7 8 -23 -6 -23 -14 0 -39 -64
-29 -74 2 -3 6 -25 8 -48 1 -24 8 -63 14 -88 25 -92 31 -232 14 -290 -8 -25
-14 -54 -14 -64 0 -10 -10 -38 -22 -62 -17 -34 -24 -41 -35 -33 -9 8 -13 8
-13 0 0 -30 -68 13 -83 53 -4 9 -11 14 -17 11 -5 -3 -10 2 -10 12 0 10 -10 23
-22 28 -12 6 -26 19 -32 30 -6 11 -15 23 -21 27 -5 4 -7 8 -3 8 7 0 -21 92
-32 100 -13 10 -50 82 -50 96 0 8 -5 12 -10 9 -6 -3 -10 -2 -10 3 0 6 -22 32
-50 59 -27 26 -50 54 -50 61 0 6 -5 12 -11 12 -17 0 -60 53 -54 68 2 6 0 12
-5 12 -5 0 -12 10 -16 22 -3 12 -13 28 -20 36 -8 7 -14 20 -14 28 0 8 -7 14
-15 14 -8 0 -15 7 -15 15 0 8 -3 15 -8 15 -4 0 -16 17 -27 37 -24 45 -89 115
-98 106 -4 -3 -7 -357 -7 -785 l0 -778 651 0 c609 0 653 1 665 18 7 9 14 27
14 38 0 12 14 32 31 45 17 13 39 32 49 43 10 10 23 15 29 11 6 -3 11 -3 11 2
0 15 85 62 170 93 86 32 141 54 172 71 10 5 25 9 33 9 8 0 23 4 33 9 62 32
175 82 216 96 27 9 55 23 62 30 7 6 43 25 81 41 37 16 77 37 87 46 11 10 29
21 40 24 12 4 49 25 83 47 103 67 129 56 78 -34 -35 -62 -199 -229 -225 -229
-5 0 -9 -4 -8 -9 2 -5 0 -10 -4 -11 -4 -1 -35 -12 -70 -26 -34 -13 -69 -24
-79 -24 -9 0 -22 -7 -30 -16 -7 -8 -21 -13 -30 -11 -10 3 -26 -1 -36 -9 -10
-7 -26 -14 -36 -14 -10 0 -52 -16 -93 -36 -40 -19 -75 -34 -76 -33 -2 2 -16
-4 -33 -13 -16 -8 -77 -39 -135 -67 -58 -28 -116 -60 -130 -71 -25 -19 -15
-20 1455 -20 l1480 0 65 43 c36 24 80 49 98 56 17 8 32 17 32 21 0 13 49 8 54
-6 3 -8 10 -14 15 -14 6 0 8 7 5 15 -4 10 -2 13 8 10 8 -3 41 8 73 26 163 85
194 96 181 64 -3 -8 -9 -23 -13 -32 -5 -13 -3 -15 13 -8 10 4 26 7 35 7 9 0
21 10 28 24 6 14 19 24 31 24 30 0 60 18 60 35 0 17 -1 17 68 20 61 4 66 -8
24 -57 -51 -61 -61 -101 -41 -171 12 -46 20 -42 25 10 7 72 16 92 61 137 52
50 74 51 68 2 -4 -30 -2 -33 19 -31 44 5 51 -8 49 -95 l-2 -80 323 0 c218 0
325 3 333 11 8 8 13 8 17 0 5 -8 565 -11 1962 -11 l1954 0 -1 2373 c0 1839 -3
2368 -12 2353 -7 -11 -28 -38 -47 -60 -76 -88 -190 -253 -190 -276 0 -4 -26
-32 -58 -63 -61 -58 -105 -81 -169 -92 -20 -3 -38 -7 -40 -8 -1 -2 -3 -149 -4
-327 -1 -179 -8 -408 -15 -510 -8 -102 -14 -223 -15 -270 -1 -86 25 -261 60
-400 56 -221 71 -288 71 -314 0 -48 -158 -195 -336 -311 -228 -150 -484 -297
-539 -311 -13 -3 -29 -12 -36 -20 -6 -8 -18 -14 -27 -14 -8 0 -40 -12 -71 -26
-31 -15 -73 -28 -94 -29 -22 -1 -47 -11 -60 -23 -26 -23 -149 -85 -192 -96
-17 -5 -53 -11 -80 -15 -44 -6 -53 -4 -75 16 -22 20 -23 26 -12 44 9 15 10 24
3 33 -8 10 0 24 32 55 70 69 82 85 79 111 -2 17 8 37 32 62 36 38 39 68 8 68
-13 0 -12 4 5 23 11 12 23 30 26 39 4 11 12 15 21 12 13 -5 13 -9 -1 -31 -9
-13 -17 -38 -18 -54 -2 -28 -1 -28 17 -12 10 9 18 24 16 32 -3 20 44 71 66 71
9 0 16 8 16 18 0 10 5 23 11 29 8 8 5 13 -10 18 -32 10 -27 43 7 47 l27 4 -36
18 c-51 26 -94 16 -85 -19 5 -19 2 -25 -10 -25 -11 0 -14 -5 -9 -17 5 -15 4
-16 -6 -5 -18 17 -57 15 -75 -3 -14 -13 -13 -16 8 -24 13 -6 17 -10 8 -11 -8
0 -32 -3 -52 -6 -24 -4 -38 -2 -38 5 0 6 -9 11 -20 11 -17 0 -18 -3 -9 -24 14
-29 -3 -66 -30 -66 -10 0 -30 -9 -44 -20 -14 -11 -30 -20 -36 -20 -6 0 -11 -6
-11 -13 0 -7 -21 -19 -46 -26 -42 -13 -48 -12 -56 3 -5 9 -16 16 -23 16 -18 0
-20 -26 -2 -33 6 -3 2 -6 -10 -6 -25 -1 -31 -16 -10 -25 8 -3 2 -14 -18 -30
-32 -28 -45 -32 -45 -16 0 6 8 10 17 10 12 0 14 3 6 11 -14 14 -73 2 -73 -16
0 -7 10 -15 22 -18 18 -5 19 -8 8 -21 -7 -9 -18 -16 -25 -16 -7 0 -15 -7 -19
-15 -3 -9 -19 -15 -41 -15 -25 0 -35 -4 -35 -15 0 -14 -3 -14 -30 0 -33 17
-70 20 -70 5 0 -13 -11 -13 -30 0 -13 9 -13 12 3 24 9 7 17 19 17 26 0 8 8 10
25 6 14 -4 25 -2 25 4 0 5 -17 10 -38 10 -21 0 -44 6 -51 13 -10 10 -16 8 -28
-10 -12 -18 -21 -21 -46 -16 -18 3 -35 11 -39 17 -6 8 -11 6 -18 -4 -9 -13
-10 -13 -10 0 -1 31 -149 117 -150 86 -1 -13 -30 24 -30 38 0 5 6 2 13 -9 9
-11 16 -14 20 -8 4 6 -10 27 -30 47 -41 39 -70 50 -35 13 35 -37 26 -41 -13
-6 -19 18 -35 36 -35 41 0 14 55 9 76 -7 10 -8 27 -15 37 -15 10 0 33 -11 51
-25 56 -42 75 -31 29 17 -26 27 -26 28 -5 28 13 0 22 -6 22 -15 0 -9 9 -25 20
-37 24 -26 26 -48 5 -48 -13 0 -14 -4 -5 -20 6 -11 16 -17 25 -14 9 4 22 1 30
-6 21 -18 45 -5 45 24 0 22 3 24 28 17 16 -5 38 -15 50 -22 19 -12 23 -11 36
6 10 14 11 24 4 33 -17 20 -1 26 32 12 42 -17 48 -6 14 24 -16 13 -32 20 -35
15 -3 -5 -13 -7 -21 -4 -10 4 -17 0 -20 -10 -3 -15 -7 -14 -29 7 -15 14 -34
28 -43 31 -15 6 -23 37 -9 37 4 0 20 -12 35 -27 22 -21 28 -23 28 -10 0 8 -4
19 -10 22 -5 3 -10 13 -10 21 0 12 4 12 20 4 11 -6 20 -7 20 -2 0 5 -9 17 -20
27 -11 10 -20 28 -20 40 0 22 -29 69 -30 48 0 -22 -16 -14 -29 13 -13 29 -9
40 9 29 6 -4 9 -14 6 -22 -3 -8 -1 -11 4 -8 16 10 12 30 -10 50 -11 10 -20 25
-20 33 0 7 -9 27 -20 42 -18 25 -18 28 -3 34 11 5 29 -5 55 -31 56 -54 58 -33
2 27 -34 37 -50 47 -56 38 -6 -10 -8 -10 -8 0 0 20 -36 63 -44 54 -4 -4 -14 2
-22 12 -7 11 -17 16 -21 12 -4 -4 11 -23 35 -42 23 -20 42 -42 42 -50 0 -19
-19 -18 -26 1 -4 8 -10 12 -15 10 -11 -8 -59 24 -59 39 0 6 -10 12 -22 13 -19
1 -13 -7 31 -48 38 -34 57 -45 62 -37 6 9 10 7 15 -7 4 -11 14 -28 22 -37 8
-10 11 -18 7 -18 -11 0 -76 50 -97 75 -10 11 -17 16 -18 11 0 -6 12 -23 28
-39 15 -17 21 -27 14 -23 -6 4 -19 0 -28 -8 -14 -14 -13 -18 13 -41 15 -13 32
-25 37 -25 4 0 5 -7 2 -16 -3 -8 -1 -24 4 -34 9 -16 7 -18 -16 -14 -23 4 -24
3 -13 -18 7 -13 27 -39 46 -58 18 -19 33 -39 33 -45 0 -5 -7 -2 -14 8 -16 20
-26 22 -26 3 0 -9 -8 -12 -25 -8 -29 5 -44 22 -21 22 18 0 21 16 6 25 -5 3
-10 21 -10 38 0 25 -3 29 -11 17 -8 -12 -9 -10 -4 8 4 15 1 24 -9 28 -9 3 -16
12 -16 18 0 7 -7 21 -15 32 -13 18 -14 18 -8 -6 4 -17 2 -22 -5 -15 -10 10
-33 115 -25 115 2 0 11 -16 19 -36 8 -20 17 -34 20 -32 2 3 -7 29 -22 59 -46
97 -57 114 -62 101 -2 -7 0 -18 6 -25 5 -7 12 -21 16 -31 5 -16 4 -17 -9 -6
-8 7 -15 9 -15 4 0 -4 -8 1 -18 12 -27 29 -27 80 1 88 13 3 25 0 30 -9 4 -8
13 -15 19 -15 7 0 6 5 -2 15 -6 8 -9 18 -6 24 3 5 -3 7 -14 4 -15 -4 -20 0
-20 16 0 11 -4 21 -10 21 -5 0 -10 -4 -10 -10 0 -5 -6 -10 -14 -10 -16 0 -18
37 -4 57 6 7 4 15 -5 20 -8 4 -17 29 -19 56 -4 37 -2 50 11 60 19 14 22 67 4
67 -6 0 -15 5 -19 12 -4 6 -3 8 3 5 20 -12 25 27 6 41 -16 13 -16 13 7 7 25
-8 25 -7 -4 19 -21 20 -26 30 -17 39 6 6 11 20 11 32 0 12 4 25 10 31 13 13 0
56 -15 50 -8 -3 -16 2 -19 11 -4 11 -2 14 9 9 12 -4 14 0 9 19 -6 25 11 36 19
13 2 -7 3 -5 2 4 -2 10 1 21 6 24 5 3 9 0 9 -5 0 -6 4 -11 10 -11 5 0 7 13 4
28 -5 23 -1 29 23 39 l28 11 -32 1 c-21 1 -33 6 -33 15 0 7 -6 19 -14 25 -12
10 -13 8 -9 -11 6 -23 6 -23 -15 -4 -25 22 -29 38 -7 30 8 -4 15 -1 15 5 0 7
-7 14 -15 17 -8 4 -15 11 -15 18 0 6 12 -1 25 -16 13 -16 29 -28 35 -28 6 0
15 -10 20 -22 8 -20 9 -20 9 -4 1 11 -10 34 -24 52 -16 21 -21 34 -13 36 8 3
3 20 -15 52 l-27 48 26 -17 25 -16 -16 32 c-12 22 -19 28 -25 19 -5 -8 -9 -9
-14 -1 -4 6 -2 11 5 11 8 0 8 4 -1 15 -19 23 -2 18 37 -12 l37 -28 -18 28
c-10 15 -16 27 -12 27 11 0 46 -40 46 -52 0 -7 12 -25 28 -41 l27 -29 -27 13
c-15 6 -30 21 -34 31 -3 11 -8 17 -12 14 -3 -4 5 -20 18 -38 15 -21 23 -46 24
-78 1 -32 10 -59 26 -83 14 -20 26 -34 28 -33 8 9 -12 56 -24 56 -16 0 -16 0
-18 61 -1 36 2 46 14 45 20 -1 14 35 -8 52 -16 12 -16 14 2 28 16 11 17 17 8
26 -7 7 -12 20 -12 30 0 10 -7 18 -17 18 -15 0 -15 2 -4 9 12 8 12 13 -2 34
-14 22 -14 26 1 42 13 13 14 19 5 22 -7 3 -13 10 -13 16 0 8 4 7 12 -1 17 -17
29 -15 22 3 -7 17 7 20 23 4 7 -7 13 -7 17 -1 4 6 -6 18 -22 27 -34 20 -59 55
-40 55 7 0 -4 16 -25 36 -39 39 -48 61 -19 49 9 -3 19 -7 22 -8 7 -3 8 14 2
36 -3 10 -10 16 -17 13 -7 -2 -21 2 -32 9 -10 8 -13 15 -7 15 5 0 15 -5 21
-11 9 -9 14 -5 19 15 3 14 11 26 18 26 6 0 3 7 -6 14 -20 15 -24 31 -5 20 6
-4 9 -4 5 0 -3 4 -21 15 -39 25 -35 19 -53 46 -23 34 14 -5 16 -3 11 11 -5 13
-1 19 13 23 22 6 27 28 8 37 -10 5 -10 7 0 12 6 3 12 11 12 17 0 6 -11 0 -24
-12 l-25 -23 4 36 c1 20 -1 36 -6 36 -5 0 -9 -5 -9 -12 0 -6 -3 -8 -6 -5 -4 4
-2 13 5 21 12 15 11 37 -2 47 -5 3 6 16 25 28 18 13 25 20 14 17 -17 -6 -18
-5 -3 18 15 22 15 25 -4 42 -15 13 -16 19 -7 25 7 5 20 1 30 -8 17 -15 18 -15
18 1 0 9 5 14 10 11 6 -4 8 -16 5 -28 -5 -17 -4 -19 4 -7 6 8 8 23 5 33 -3 9
0 17 7 17 8 0 8 4 2 13 -22 28 -23 47 -2 47 12 0 17 -4 14 -11 -4 -6 2 -5 13
2 22 14 20 29 -3 29 -20 0 -29 19 -16 34 8 9 5 18 -10 34 -17 19 -18 23 -5 28
9 3 13 10 10 16 -3 5 -11 4 -20 -3 -17 -14 -19 2 -1 20 10 10 7 17 -13 33
l-25 21 28 -5 c19 -4 27 -1 27 8 0 8 4 14 10 14 5 0 6 -8 3 -17 -6 -15 -5 -16
9 -3 11 11 12 17 4 22 -15 10 -16 46 -1 52 9 3 11 -2 7 -16 -4 -17 -2 -20 12
-15 10 4 19 1 23 -8 4 -11 9 -12 18 -5 9 7 12 2 12 -20 0 -18 -5 -29 -11 -27
-18 7 -46 -13 -46 -32 0 -12 11 -23 31 -30 43 -15 42 -15 36 18 -8 38 2 71 22
72 10 0 11 2 4 6 -7 2 -13 13 -13 23 0 20 -30 36 -40 20 -3 -5 -17 9 -30 32
-17 31 -19 39 -7 29 10 -8 17 -9 17 -3 0 6 -4 14 -10 17 -5 3 -10 12 -10 18 0
7 4 6 10 -3 8 -13 10 -12 10 3 0 9 4 17 9 17 5 0 7 -10 3 -22 -3 -14 -2 -19 7
-14 6 4 9 11 7 15 -7 11 33 53 44 46 17 -10 16 40 -1 60 -17 19 -17 21 0 43
l17 24 37 -21 c48 -27 55 -26 30 1 -26 29 -35 56 -22 64 6 3 8 12 5 20 -4 12
-2 12 14 4 11 -6 25 -8 30 -5 13 8 1 35 -16 35 -17 0 -18 12 -3 27 7 7 9 20 5
30 -6 15 -9 15 -16 3 -11 -19 -22 -8 -14 14 3 9 14 16 23 17 10 0 11 2 4 6 -7
2 -13 14 -13 24 0 13 4 18 13 13 6 -4 3 3 -8 16 l-20 23 22 -11 c18 -10 20 -9
16 7 -3 10 0 22 6 25 6 4 11 3 11 -2 0 -6 7 -13 16 -16 20 -8 8 14 -19 33 -18
12 -18 15 -3 23 9 5 20 7 25 4 19 -12 21 27 2 40 -22 16 -26 65 -4 57 8 -3 12
-12 9 -20 -3 -8 -2 -11 3 -8 6 3 9 14 8 25 -1 10 -5 16 -9 14 -4 -3 -8 1 -8 9
0 8 8 18 17 21 15 6 15 8 3 16 -12 8 -11 10 7 10 26 0 38 15 22 26 -7 4 -9 3
-6 -3 4 -6 -4 -10 -18 -10 -14 0 -28 5 -32 11 -3 6 -3 8 2 4 4 -4 20 -1 35 7
19 10 28 22 28 40 0 14 8 32 18 40 11 8 14 14 7 15 -20 0 -15 34 7 58 11 12
20 25 20 29 -1 4 -10 -3 -21 -16 -11 -13 -22 -21 -26 -17 -4 3 -1 12 5 18 17
17 15 45 -4 52 -21 8 -24 8 -24 -4 0 -5 7 -10 15 -10 8 0 15 -5 15 -10 0 -19
-40 10 -50 35 -11 29 -45 49 -82 48 -54 -2 -59 -3 -53 -13 3 -5 1 -10 -4 -10
-14 0 -14 17 -1 25 6 4 8 11 4 16 -3 5 -10 7 -15 4 -5 -4 -9 0 -10 7 0 7 -4 4
-9 -7 -5 -11 -9 -15 -9 -8 -1 10 -61 37 -86 38 -5 0 -16 4 -22 8 -8 5 -13 4
-13 -2 0 -6 -4 -11 -10 -11 -5 0 -10 5 -10 11 0 16 -42 48 -64 49 -13 0 -17 5
-13 19 2 10 -1 18 -7 18 -43 -1 -56 4 -56 23 0 10 -8 24 -17 29 -10 6 -12 11
-5 11 6 0 12 7 12 16 0 10 5 14 16 10 8 -3 12 -2 9 4 -3 6 -16 10 -28 10 -22
1 -57 21 -57 34 0 4 4 5 8 2 4 -2 19 5 32 15 20 16 20 18 4 10 -11 -5 -30 -7
-42 -4 -12 3 -22 1 -22 -5 0 -5 -11 -9 -24 -8 -23 1 -23 2 -9 19 9 9 23 17 31
17 9 0 12 6 8 15 -7 20 39 39 76 31 15 -3 30 -1 33 3 6 11 -112 19 -128 9 -23
-14 -28 6 -6 23 20 15 21 21 10 28 -11 7 -4 12 25 20 21 6 52 11 67 11 16 0
26 4 23 9 -4 5 0 12 6 14 28 12 -19 27 -87 28 -91 1 -50 17 50 18 50 1 66 4
55 11 -8 6 -40 7 -70 4 -41 -4 -60 -2 -75 10 -20 15 -20 15 4 16 20 0 22 2 10
16 -11 13 -11 15 2 14 7 -1 28 -2 44 -1 22 1 26 4 16 10 -8 5 -21 7 -29 3 -10
-3 -13 -1 -8 6 9 14 42 16 51 3 3 -5 30 -10 60 -10 33 0 53 4 49 10 -3 5 -24
9 -47 8 -23 -1 -58 6 -77 14 -19 9 -29 16 -22 17 7 0 22 9 34 20 l22 20 -35 1
c-49 2 -73 5 -105 14 l-29 8 25 7 c23 6 22 8 -18 20 -27 8 -41 18 -38 26 7 17
-15 23 -35 11 -13 -8 -21 -6 -33 5 -18 19 -85 43 -93 34 -3 -3 5 -10 18 -15
16 -7 18 -10 7 -10 -27 -1 -47 10 -42 24 3 7 -7 17 -25 23 -19 7 -35 22 -41
38 -6 15 -13 24 -16 21 -3 -3 -1 -14 5 -25 14 -27 14 -35 -1 -25 -24 14 -48
13 -48 -2 0 -8 -4 -15 -10 -15 -5 0 -10 7 -10 15 0 8 -9 15 -21 15 -11 0 -18
4 -14 10 3 5 12 7 20 3 9 -3 15 1 15 10 0 20 -17 31 -22 16 -3 -8 -10 -6 -21
5 -20 20 -37 13 -37 -15 0 -10 -4 -19 -9 -19 -4 0 -6 10 -4 23 3 14 -3 29 -16
41 -12 11 -21 14 -21 8 0 -6 5 -14 10 -17 15 -9 12 -25 -6 -25 -8 0 -12 5 -9
10 3 6 2 10 -4 10 -6 0 -9 14 -7 30 2 21 -1 30 -11 30 -10 0 -12 -8 -7 -27 5
-22 4 -26 -6 -16 -7 6 -18 9 -25 7 -6 -3 -12 2 -12 11 0 8 7 15 16 15 10 0 7
5 -9 14 -26 13 -52 10 -30 -4 9 -6 7 -11 -8 -19 -35 -19 -42 -12 -17 15 14 15
22 30 19 35 -3 5 0 17 6 26 9 16 10 15 5 -4 -4 -13 -2 -23 3 -23 12 0 22 24
22 51 0 11 4 17 10 14 6 -3 7 1 4 9 -3 9 -13 16 -21 16 -12 0 -12 2 1 15 8 8
22 12 30 9 22 -8 20 12 -1 26 -13 8 -14 13 -5 16 16 7 5 25 -12 18 -7 -3 -19
2 -26 11 -8 9 -8 15 -2 15 6 0 13 -4 17 -10 3 -5 12 -7 19 -4 8 3 17 1 20 -4
3 -6 15 -8 26 -5 18 5 19 8 7 27 -12 18 -11 26 8 58 17 30 23 35 39 26 16 -9
17 -7 11 13 -4 13 -17 30 -28 39 -22 18 -15 45 10 36 12 -5 14 -1 9 19 -4 14
-2 25 4 25 5 0 10 7 10 16 0 8 -4 12 -10 9 -5 -3 -15 -3 -21 1 -8 4 -7 9 2 15
17 10 21 49 6 49 -7 0 -6 5 1 12 10 10 15 10 22 -2 7 -11 14 -9 36 13 17 17
22 27 13 27 -12 0 -12 2 0 9 17 11 22 102 6 113 -6 5 -5 8 3 8 6 0 12 4 12 8
0 4 -9 8 -20 8 -11 0 -20 -6 -20 -13 0 -7 -8 -13 -17 -12 -11 0 -13 3 -5 6 6
2 12 9 12 15 0 6 -7 7 -16 4 -8 -3 -12 -2 -9 4 3 6 13 10 21 10 8 0 12 5 9 10
-3 6 1 10 10 10 9 0 13 -5 9 -11 -4 -8 0 -8 15 0 24 13 29 26 6 17 -8 -3 -15
-1 -15 4 0 5 -10 18 -22 29 -21 20 -21 21 -3 41 16 18 16 20 2 20 -10 0 -17
-5 -17 -12 0 -6 -2 -9 -5 -6 -3 3 -1 16 4 29 5 13 10 18 10 12 2 -42 51 16 51
60 0 16 -5 18 -25 13 -22 -6 -28 -2 -39 25 -16 37 -10 73 10 65 9 -3 14 1 14
12 1 14 4 13 20 -7 22 -26 24 -25 82 32 16 17 35 27 43 23 8 -3 15 0 15 6 0 6
7 19 15 29 14 14 14 19 2 30 -19 19 -26 53 -15 73 6 12 5 16 -6 16 -8 0 -16 5
-18 11 -3 9 -11 8 -28 -1 -24 -13 -24 -12 -10 5 14 16 13 17 -8 11 -13 -5 -22
-3 -22 3 0 6 5 11 12 11 9 0 9 3 0 12 -17 17 -15 29 3 22 8 -4 15 -1 15 5 0 6
-5 11 -12 11 -6 0 -9 3 -6 6 4 3 15 1 26 -5 13 -7 18 -18 15 -33 -4 -19 0 -24
17 -25 14 -1 20 3 17 11 -3 8 -1 18 5 24 13 13 0 55 -14 46 -7 -5 -7 -1 0 12
7 13 6 24 -7 43 -9 14 -11 22 -4 18 6 -4 14 -1 16 5 4 8 6 7 6 -4 1 -9 5 -20
11 -23 6 -3 7 1 4 10 -5 11 -2 14 12 9 11 -4 16 -3 12 1 -5 5 2 13 15 20 22
11 27 45 12 84 -5 13 -7 14 -15 1 -8 -12 -10 -10 -10 8 0 13 6 22 16 22 9 0
18 9 21 20 3 11 10 20 15 20 5 0 6 -5 2 -11 -5 -8 -1 -8 14 0 15 8 23 8 28 0
8 -13 41 21 63 64 8 15 21 27 29 27 9 0 12 6 8 16 -4 12 -2 15 9 10 19 -7 19
-1 -1 18 -14 15 -11 16 28 17 24 1 47 1 52 0 25 -5 56 11 56 29 0 22 43 36
133 43 9 1 17 5 17 9 0 4 7 5 15 2 8 -3 28 4 44 15 16 12 40 21 54 21 16 0 44
16 72 40 51 44 55 46 74 28 8 -9 11 -9 9 -1 -2 6 0 10 4 10 4 -1 15 8 23 21 9
12 21 19 27 16 6 -4 8 -3 5 3 -9 14 21 40 56 48 30 8 36 -9 16 -47 -9 -17 -9
-20 4 -15 8 3 18 3 22 -1 4 -4 10 -7 13 -7 4 -1 21 -9 39 -18 18 -9 39 -17 47
-17 8 0 23 -11 33 -25 27 -38 110 -125 120 -125 15 -1 95 -80 91 -91 -2 -6 8
-24 22 -39 15 -16 32 -48 39 -72 6 -23 20 -58 29 -76 16 -31 16 -34 0 -46 -15
-11 -15 -15 -3 -27 7 -8 15 -21 17 -29 2 -8 9 -21 16 -28 18 -20 15 -31 -12
-42 -23 -8 -27 -30 -16 -85 5 -22 -1 -34 -18 -39 -14 -5 -17 -14 -14 -38 3
-21 1 -29 -7 -24 -8 5 -8 1 1 -18 6 -14 15 -26 20 -26 4 0 8 -8 8 -17 1 -14 3
-13 13 5 l13 23 12 -26 c10 -21 9 -27 -3 -31 -23 -9 -18 -34 10 -56 14 -11 25
-28 25 -38 0 -18 26 -36 32 -21 2 5 12 -1 23 -12 11 -11 15 -17 8 -13 -6 3
-15 1 -19 -5 -4 -6 1 -16 10 -21 9 -5 14 -13 11 -18 -3 -4 3 -6 12 -4 22 6 53
-60 52 -109 0 -17 -3 -26 -6 -19 -2 6 -9 10 -13 7 -18 -11 3 -35 37 -41 29 -6
39 -3 52 14 17 23 61 21 61 -3 0 -8 8 -11 19 -8 17 4 18 8 8 27 -7 11 -15 23
-18 26 -3 3 -8 13 -12 23 -8 21 12 23 39 2 28 -21 37 -18 32 10 -4 18 -1 25
10 25 8 0 13 -3 9 -6 -5 -5 22 -46 83 -126 40 -53 40 -28 0 45 -50 93 -51 113
-6 121 36 7 36 8 20 64 -9 32 4 27 46 -18 55 -60 99 -37 83 44 -6 31 -6 31 14
13 27 -23 35 -67 18 -87 -18 -20 -7 -36 27 -42 24 -4 26 -3 18 13 -16 28 -3
46 30 41 24 -3 28 -1 24 14 -6 25 6 40 38 48 22 5 33 0 56 -22 16 -16 34 -37
39 -47 10 -18 12 -18 36 2 l26 20 -29 33 c-28 31 -31 60 -6 60 13 0 60 -58 61
-75 2 -31 30 -65 53 -65 16 0 22 -4 19 -14 -3 -7 8 -26 24 -42 35 -33 36 -42
7 -53 l-23 -9 25 -10 c36 -14 113 -80 124 -106 5 -11 8 -31 7 -43 -2 -23 19
-53 37 -53 5 0 7 -12 4 -26 -4 -21 -1 -25 14 -22 15 3 18 10 16 38 -4 32 -3
33 15 20 10 -8 23 -19 28 -25 18 -18 64 -45 79 -45 21 0 26 -22 9 -42 -18 -20
-4 -53 27 -63 11 -3 20 -12 20 -19 0 -25 26 -46 65 -51 47 -6 52 -10 58 -53 3
-19 13 -42 21 -51 9 -10 16 -21 16 -26 0 -5 7 -17 17 -27 21 -23 13 -31 -21
-19 -17 7 -26 7 -26 1 0 -6 5 -10 10 -10 6 0 10 -15 10 -34 0 -18 7 -39 15
-46 8 -7 15 -21 15 -31 0 -11 9 -28 20 -39 11 -11 20 -27 20 -35 0 -8 6 -15
14 -15 13 0 25 -17 22 -32 0 -3 10 -18 23 -31 26 -29 20 -51 -11 -41 -18 5
-20 3 -14 -17 4 -13 8 -29 9 -36 1 -6 -62 -54 -140 -106 -142 -94 -144 -95
-203 -94 -33 0 -63 -3 -66 -6 -4 -3 -6 -34 -6 -69 1 -81 4 -98 13 -98 5 0 6
-7 2 -16 -5 -14 -2 -16 23 -9 16 4 40 8 54 8 14 1 28 6 32 11 3 5 14 11 22 12
18 2 136 119 136 133 0 5 15 16 33 24 17 9 40 29 50 46 10 17 33 43 52 57 19
14 44 41 55 58 36 60 120 80 195 47 26 -12 51 -21 56 -21 5 0 8 755 7 1752 -3
1707 -3 1753 -22 1756 -10 2 -28 -1 -40 -6 -25 -13 -122 -29 -227 -38 -139
-12 -247 45 -278 145 l-12 41 -894 0 -895 0 0 -23z m-1420 -367 c0 -5 -13 -10
-29 -10 -16 0 -38 -3 -48 -6 -12 -5 -15 -4 -8 4 9 9 34 16 73 21 6 0 12 -3 12
-9z m1641 -457 c22 -21 53 -43 69 -48 32 -12 85 -79 96 -119 6 -24 3 -26 -24
-26 -22 0 -36 8 -51 29 -12 16 -21 34 -21 40 0 8 -6 9 -17 3 -27 -14 -40 -5
-73 52 -26 47 -40 106 -25 106 3 0 24 -17 46 -37z m-256 -23 c10 -22 22 -40
26 -40 4 0 9 -10 11 -22 2 -15 9 -22 20 -20 25 4 43 -87 21 -108 -13 -13 -16
-13 -26 4 -7 11 -24 31 -39 45 -29 28 -48 85 -48 144 0 48 12 47 35 -3z m565
-12 c33 -45 38 -79 15 -98 -12 -10 -15 -10 -15 0 0 9 -3 10 -13 1 -11 -8 -21
0 -45 38 -37 57 -41 81 -12 81 11 0 20 5 20 10 0 22 21 8 50 -32z m149 -24
c44 -45 48 -47 98 -45 44 2 56 -2 85 -27 18 -16 56 -39 84 -51 38 -17 55 -31
67 -57 10 -19 17 -39 17 -44 0 -18 -36 -15 -69 7 -19 13 -49 23 -67 23 -18 0
-54 11 -80 24 -37 19 -53 22 -67 14 -16 -8 -25 -4 -48 22 -16 17 -33 29 -39
25 -5 -3 -17 7 -26 22 -9 15 -25 40 -35 55 -19 28 -25 59 -12 71 17 17 49 3
92 -39z m422 -250 c9 -11 8 -14 -2 -14 -15 1 -49 23 -49 33 0 10 39 -5 51 -19z
m-2211 -826 c0 -6 -6 -5 -15 2 -8 7 -15 14 -15 16 0 2 7 1 15 -2 8 -4 15 -11
15 -16z m-280 -138 c0 -11 -4 -20 -10 -20 -5 0 -10 6 -10 12 0 7 -7 2 -16 -10
-12 -18 -19 -21 -30 -11 -11 9 -15 8 -20 -4 -8 -21 -34 -10 -34 15 0 10 4 17
9 14 5 -4 11 -1 13 5 3 9 10 9 26 0 18 -10 23 -9 28 4 9 23 44 19 44 -5z
m-640 -50 c0 -5 -4 -10 -10 -10 -5 0 -10 5 -10 10 0 6 5 10 10 10 6 0 10 -4
10 -10z m-56 -36 c9 -3 16 -10 16 -15 0 -6 -7 -6 -17 -1 -13 6 -23 3 -37 -11
-16 -17 -17 -19 -3 -14 24 9 21 -6 -3 -21 -18 -11 -20 -10 -20 16 0 18 7 31
23 38 12 7 23 12 24 13 1 0 8 -2 17 -5z m156 -20 c9 -23 12 -24 27 -13 14 13
15 12 6 -6 -6 -11 -13 -37 -17 -57 -4 -21 -11 -38 -16 -38 -6 0 -10 4 -10 8 0
14 -61 1 -67 -15 -4 -10 -8 -11 -20 -2 -11 10 -17 8 -31 -7 -10 -10 -19 -23
-21 -29 -1 -5 -15 -9 -31 -7 -37 4 -38 -10 -3 -36 32 -23 28 -31 -16 -38 -20
-3 -31 -1 -31 7 0 8 -10 9 -31 5 -26 -5 -30 -4 -20 8 7 8 11 20 10 28 -3 22
13 78 23 78 5 0 22 -7 38 -15 27 -14 30 -14 30 0 0 8 -11 17 -25 21 -29 7 -34
24 -7 24 10 0 28 11 40 25 12 13 33 27 47 31 14 3 25 10 25 15 0 5 5 9 10 9 6
0 10 -7 10 -15 0 -24 14 -17 33 15 22 37 34 38 47 4z m528 -35 c-17 -11 -28
-2 -28 23 0 21 1 21 20 3 15 -14 17 -21 8 -26z m-74 -26 c-11 -8 -12 -13 -4
-18 8 -5 10 -26 8 -57 -3 -27 0 -52 5 -55 6 -4 4 -10 -5 -17 -8 -6 -17 -19
-21 -29 -6 -15 -3 -17 12 -12 28 9 38 -15 15 -34 -11 -9 -23 -24 -26 -33 -4
-10 -23 -19 -52 -23 -37 -6 -46 -11 -46 -27 0 -11 -5 -16 -11 -13 -6 4 -8 13
-5 21 3 9 -1 13 -12 12 -36 -4 -91 14 -97 33 -9 28 -55 61 -69 50 -17 -14 -38
2 -30 23 6 16 5 17 -14 5 -26 -16 -37 -7 -23 19 11 20 61 35 86 26 10 -4 15 0
15 15 0 12 5 27 10 34 6 7 19 24 30 38 18 25 52 31 78 15 5 -3 15 1 22 9 7 8
16 12 22 9 5 -3 17 -3 26 1 13 5 10 10 -18 23 l-35 17 30 6 c17 3 42 4 58 1
17 -3 27 0 27 8 0 7 9 2 20 -11 17 -21 17 -25 4 -36z m-334 -3 c0 -5 -4 -10
-10 -10 -5 0 -10 5 -10 10 0 6 5 10 10 10 6 0 10 -4 10 -10z m106 2 c-9 -8
-56 -11 -51 -2 2 4 16 8 30 8 14 0 24 -3 21 -6z m-152 -48 c-4 -17 -2 -29 7
-35 11 -7 11 -9 -2 -9 -20 0 -32 26 -24 51 10 29 26 22 19 -7z m3176 -32 c0
-8 9 -25 20 -39 22 -28 16 -54 -7 -30 -8 8 -15 20 -17 28 -1 8 -10 26 -20 41
-21 31 -12 60 10 31 7 -10 14 -24 14 -31z m311 11 c31 -18 38 -33 16 -33 -8 0
-24 11 -37 25 -27 29 -20 32 21 8z m-4466 -3 c-3 -5 -10 -10 -16 -10 -5 0 -9
5 -9 10 0 6 7 10 16 10 8 0 12 -4 9 -10z m1025 1 c0 -6 -4 -13 -10 -16 -5 -3
-10 1 -10 9 0 9 5 16 10 16 6 0 10 -4 10 -9z m-83 -23 c-3 -8 -6 -5 -6 6 -1
11 2 17 5 13 3 -3 4 -12 1 -19z m-126 -28 c6 -16 17 -30 25 -30 8 0 14 -4 14
-10 0 -19 -18 -10 -43 24 -15 18 -23 36 -20 40 11 10 14 7 24 -24z m3643 -33
c8 -12 7 -23 -2 -37 -7 -12 -9 -26 -5 -33 4 -7 8 -19 8 -27 0 -8 12 -21 28
-28 31 -15 63 -78 48 -96 -6 -7 -7 -27 -2 -46 9 -39 5 -60 -11 -60 -7 0 -6 5
1 14 10 11 8 16 -9 21 -30 10 -36 -1 -15 -25 11 -12 20 -30 22 -42 3 -17 0
-19 -24 -13 -15 3 -32 12 -37 19 -6 8 -27 24 -46 37 -19 13 -36 31 -38 39 -5
23 -23 40 -41 40 -10 0 -28 11 -41 25 -22 23 -22 26 -7 43 19 21 11 37 -26 51
-37 14 -37 43 1 39 15 -2 26 -8 25 -15 -2 -7 2 -13 9 -13 7 0 24 -12 39 -26
15 -15 43 -28 61 -30 18 -2 41 -13 51 -25 9 -12 17 -16 17 -11 0 6 -4 14 -10
17 -5 3 -17 22 -26 42 -13 27 -15 42 -8 62 6 14 10 43 9 64 -2 39 10 44 29 14z
m-3634 -37 c0 -5 -2 -10 -4 -10 -3 0 -8 5 -11 10 -3 6 -1 10 4 10 6 0 11 -4
11 -10z m3490 -10 c0 -5 -5 -10 -11 -10 -5 0 -7 5 -4 10 3 6 8 10 11 10 2 0 4
-4 4 -10z m-3430 -21 c0 -5 -4 -9 -10 -9 -5 0 -10 7 -10 16 0 8 5 12 10 9 6
-3 10 -10 10 -16z m520 1 c0 -11 -7 -20 -15 -20 -13 0 -14 4 -5 20 6 11 13 20
15 20 3 0 5 -9 5 -20z m3085 9 c11 -17 -1 -21 -15 -4 -8 9 -8 15 -2 15 6 0 14
-5 17 -11z m-4734 -42 c-10 -9 -11 -8 -5 6 3 10 9 15 12 12 3 -3 0 -11 -7 -18z
m1029 3 c8 -16 8 -18 -4 -14 -17 6 -30 34 -16 34 5 0 14 -9 20 -20z m140 10
c0 -5 -2 -10 -4 -10 -3 0 -8 5 -11 10 -3 6 -1 10 4 10 6 0 11 -4 11 -10z m156
-11 c3 -6 20 -19 37 -29 l30 -19 -35 2 c-27 2 -39 9 -51 30 -13 22 -14 27 -2
27 8 0 17 -5 21 -11z m3475 -1 c1 -7 1 -16 0 -20 0 -4 8 -12 19 -18 21 -11 28
-40 10 -40 -19 0 -50 40 -50 65 0 25 19 36 21 13z m-3561 -8 c0 -5 -7 -10 -15
-10 -8 0 -15 5 -15 10 0 6 7 10 15 10 8 0 15 -4 15 -10z m-245 -10 c3 -5 1
-10 -4 -10 -6 0 -11 5 -11 10 0 6 2 10 4 10 3 0 8 -4 11 -10z m285 0 c0 -5 -2
-10 -4 -10 -3 0 -8 5 -11 10 -3 6 -1 10 4 10 6 0 11 -4 11 -10z m-1380 -50 c0
-5 -5 -10 -11 -10 -5 0 -7 5 -4 10 3 6 8 10 11 10 2 0 4 -4 4 -10z m1545 -11
c11 -17 -1 -21 -15 -4 -8 9 -8 15 -2 15 6 0 14 -5 17 -11z m355 -19 c0 -5 -2
-10 -4 -10 -3 0 -8 5 -11 10 -3 6 -1 10 4 10 6 0 11 -4 11 -10z m-400 -96 c0
-8 -5 -12 -10 -9 -6 4 -8 11 -5 16 9 14 15 11 15 -7z m-30 -14 c0 -5 -4 -10
-9 -10 -6 0 -13 5 -16 10 -3 6 1 10 9 10 9 0 16 -4 16 -10z m91 -23 c-11 -11
-41 -3 -41 11 0 5 12 7 26 4 17 -3 22 -8 15 -15z m3380 6 c5 -32 5 -83 0 -83
-4 0 -12 5 -19 12 -9 9 -12 8 -12 -5 0 -22 -14 -22 -31 0 -11 13 -11 17 -1 20
6 3 12 13 12 23 0 24 48 54 51 33z m-3501 -119 c0 -2 -7 -4 -15 -4 -8 0 -15 4
-15 10 0 5 7 7 15 4 8 -4 15 -8 15 -10z m3500 1 c7 -9 8 -15 2 -15 -5 0 -12 7
-16 15 -3 8 -4 15 -2 15 2 0 9 -7 16 -15z m-3540 -165 c0 -5 -4 -10 -9 -10 -6
0 -13 5 -16 10 -3 6 1 10 9 10 9 0 16 -4 16 -10z m70 -52 c0 -6 -7 -5 -15 2
-8 7 -15 17 -15 22 0 6 7 5 15 -2 8 -7 15 -17 15 -22z m-65 -59 c3 -10 12 -16
18 -13 7 2 23 -9 35 -26 18 -24 19 -30 7 -30 -9 0 -14 -8 -13 -24 1 -15 7 -22
15 -19 15 6 18 -13 3 -22 -18 -11 -10 -26 10 -20 32 10 46 -6 19 -21 -18 -10
-20 -13 -7 -14 9 0 24 7 33 16 8 9 27 17 40 18 14 0 25 4 25 9 0 4 5 7 10 7 6
0 10 -7 10 -15 0 -8 -4 -15 -10 -15 -5 0 -7 -7 -4 -15 4 -8 1 -15 -6 -15 -6 0
-8 -4 -5 -10 3 -5 2 -10 -4 -10 -5 0 -15 8 -20 18 -9 14 -10 14 -11 2 0 -9 5
-21 12 -28 9 -9 9 -12 0 -12 -7 0 -12 3 -12 8 0 4 -4 13 -9 21 -7 11 -13 12
-23 3 -8 -6 -44 -13 -81 -16 -54 -4 -71 -1 -90 15 -31 24 -39 53 -20 76 13 16
14 16 9 1 -3 -10 -1 -20 4 -23 6 -4 10 1 10 9 0 8 9 20 21 26 16 9 18 14 8 26
-8 10 -8 14 0 14 20 0 11 28 -11 35 -22 7 -22 7 -3 12 23 6 36 23 28 36 -3 4
-11 6 -19 3 -9 -3 -14 1 -14 13 0 11 -3 28 -7 38 -4 11 3 8 20 -11 14 -15 29
-36 32 -47z m371 44 c-7 -7 -26 7 -26 19 0 6 6 6 15 -2 9 -7 13 -15 11 -17z
m-486 7 c0 -5 -4 -10 -10 -10 -5 0 -10 5 -10 10 0 6 5 10 10 10 6 0 10 -4 10
-10z m390 -22 c0 -12 -14 -10 -29 5 -10 10 -11 9 -6 -5 5 -13 2 -18 -9 -18
-18 0 -22 15 -6 25 6 4 8 11 5 16 -4 5 5 4 19 -3 14 -6 26 -15 26 -20z m-150
-41 c0 -6 -9 -2 -20 8 -21 19 -42 13 -22 -7 14 -14 16 -28 5 -28 -15 0 -30 47
-21 64 8 13 12 13 33 -6 14 -12 25 -26 25 -31z m-290 23 c0 -5 -4 -10 -10 -10
-5 0 -10 5 -10 10 0 6 5 10 10 10 6 0 10 -4 10 -10z m365 0 c6 0 2 -5 -8 -11
-17 -10 -37 -5 -37 11 0 4 8 7 18 5 9 -2 22 -4 27 -5z m125 -14 c0 -2 -7 -6
-15 -10 -8 -3 -15 -1 -15 4 0 6 7 10 15 10 8 0 15 -2 15 -4z m-540 -16 c0 -5
-5 -10 -11 -10 -5 0 -7 5 -4 10 3 6 8 10 11 10 2 0 4 -4 4 -10z m370 0 c0 -5
7 -7 15 -4 8 4 23 3 32 0 15 -6 15 -8 3 -16 -12 -7 -12 -12 -3 -21 16 -16 26
-6 26 27 l0 27 12 -24 c9 -16 10 -26 3 -30 -6 -4 -8 -11 -5 -15 3 -5 -1 -18
-9 -28 -12 -18 -14 -18 -20 -2 -4 9 -13 15 -20 12 -7 -3 -16 -1 -19 4 -3 4 0
10 7 12 7 3 9 12 5 23 -7 17 -8 17 -22 -1 -8 -10 -15 -17 -15 -14 -7 34 -7 60
1 60 5 0 9 -4 9 -10z m191 -17 c13 -16 12 -17 -3 -4 -10 7 -18 15 -18 17 0 8
8 3 21 -13z m-241 -38 c0 -18 -5 -25 -20 -25 -11 0 -20 5 -20 10 0 6 7 10 15
10 9 0 12 6 9 15 -4 8 -1 15 5 15 6 0 11 -11 11 -25z m-255 5 c3 -5 1 -10 -4
-10 -6 0 -11 5 -11 10 0 6 2 10 4 10 3 0 8 -4 11 -10z m60 -9 c3 -5 1 -12 -5
-16 -5 -3 -10 1 -10 9 0 18 6 21 15 7z m399 -7 c9 -24 7 -28 -9 -14 -17 14
-20 30 -6 30 5 0 12 -7 15 -16z m-157 -10 c2 -6 -3 -14 -12 -18 -9 -3 -13 -2
-10 4 3 6 1 10 -4 10 -6 0 -11 5 -11 11 0 14 32 8 37 -7z m-357 -15 c0 -11 -4
-17 -10 -14 -5 3 -10 13 -10 21 0 8 5 14 10 14 6 0 10 -9 10 -21z m460 -5 c0
-8 -5 -12 -10 -9 -6 4 -8 11 -5 16 9 14 15 11 15 -7z m-615 -24 c3 -5 1 -10
-4 -10 -6 0 -11 5 -11 10 0 6 2 10 4 10 3 0 8 -4 11 -10z m190 -10 c3 -5 1
-10 -4 -10 -6 0 -11 5 -11 10 0 6 2 10 4 10 3 0 8 -4 11 -10z m428 -12 c-25
-12 -30 -33 -10 -41 8 -4 9 -8 1 -14 -6 -4 -14 -17 -18 -28 -5 -15 -9 -16 -15
-6 -7 11 -13 9 -30 -8 -11 -11 -21 -18 -21 -15 0 4 -6 2 -12 -3 -7 -6 -21 -10
-32 -10 -18 0 -18 1 0 14 10 7 23 13 29 13 6 0 26 15 44 34 23 24 29 36 20 41
-16 11 17 35 45 34 20 0 20 -1 -1 -11z m45 0 c-2 -6 -10 -14 -16 -16 -7 -2
-10 2 -6 12 7 18 28 22 22 4z m-463 -29 c11 -17 -1 -21 -15 -4 -8 9 -8 15 -2
15 6 0 14 -5 17 -11z m478 -9 c3 -11 0 -23 -5 -27 -6 -3 -8 -1 -4 5 3 5 1 12
-6 14 -6 2 -8 10 -4 16 10 16 13 15 19 -8z m-383 -30 c0 -5 -7 -10 -15 -10 -8
0 -15 5 -15 10 0 6 7 10 15 10 8 0 15 -4 15 -10z m57 -16 c-3 -3 -12 -4 -19
-1 -8 3 -5 6 6 6 11 1 17 -2 13 -5z m118 -5 c-4 -6 -13 -8 -21 -5 -7 3 -16 1
-19 -4 -4 -6 -21 -10 -39 -10 -17 0 -37 -5 -44 -12 -7 -7 -12 -8 -12 -2 0 13
36 32 70 37 50 8 71 7 65 -4z m175 -41 c0 -6 -6 -5 -15 2 -8 7 -15 14 -15 16
0 2 7 1 15 -2 8 -4 15 -11 15 -16z m-120 -28 c0 -5 -2 -10 -4 -10 -3 0 -8 5
-11 10 -3 6 -1 10 4 10 6 0 11 -4 11 -10z m829 -210 c51 -14 54 -24 4 -16 -57
11 -73 16 -73 28 0 5 6 8 14 5 8 -3 33 -11 55 -17z m-76 -27 c-7 -2 -19 -2
-25 0 -7 3 -2 5 12 5 14 0 19 -2 13 -5z m-2649 -34 c-5 -9 25 -33 32 -26 6 6
34 -16 34 -27 0 -3 -8 -6 -17 -6 -14 0 -15 -2 -5 -9 12 -7 11 -13 -2 -37 -10
-20 -15 -24 -16 -11 0 9 -4 17 -10 17 -5 0 -7 7 -4 15 4 10 0 15 -11 15 -12 0
-15 -5 -11 -16 5 -14 4 -15 -9 -4 -11 9 -12 17 -6 23 7 7 7 16 0 29 -7 12 -6
18 2 18 6 0 13 -9 16 -20 3 -11 9 -20 14 -20 14 0 11 9 -12 41 -11 16 -17 34
-13 40 4 8 9 7 15 -2 4 -7 6 -16 3 -20z m2759 14 c-7 -2 -19 -2 -25 0 -7 3 -2
5 12 5 14 0 19 -2 13 -5z m-63 -19 c0 -2 -11 -4 -25 -4 -14 0 -25 4 -25 9 0 4
11 6 25 3 14 -2 25 -6 25 -8z m-2736 -30 c9 -24 7 -28 -9 -14 -17 14 -20 30
-6 30 5 0 12 -7 15 -16z m-9 -44 c3 -6 -4 -10 -17 -10 -18 0 -20 2 -8 10 19
12 18 12 25 0z m2848 -57 c-7 -2 -19 -2 -25 0 -7 3 -2 5 12 5 14 0 19 -2 13
-5z m-66 -19 c-3 -3 -12 -4 -19 -1 -8 3 -5 6 6 6 11 1 17 -2 13 -5z m-119
-426 c2 -9 -3 -18 -10 -20 -8 -4 -13 3 -13 18 0 26 18 27 23 2z m80 -10 c8 -8
15 -8 25 0 11 9 24 7 57 -9 49 -24 130 -88 130 -103 0 -5 -10 -1 -22 10 l-22
19 18 -28 c17 -28 17 -28 -5 -17 -12 7 -38 12 -58 12 -20 0 -48 6 -63 14 -33
17 -41 18 -33 2 4 -7 0 -5 -8 4 -8 10 -17 15 -20 11 -4 -3 -13 -1 -21 6 -11 9
-15 9 -18 -1 -3 -7 -5 7 -6 32 -2 52 19 75 46 48z m-68 -24 c0 -3 -7 -12 -15
-20 -16 -17 -18 -14 -9 10 6 15 24 23 24 10z m-45 -14 c3 -5 -1 -10 -9 -10 -9
0 -16 5 -16 10 0 6 4 10 9 10 6 0 13 -4 16 -10z m670 -20 c3 -5 1 -10 -4 -10
-6 0 -11 5 -11 10 0 6 2 10 4 10 3 0 8 -4 11 -10z m-608 -117 c4 -12 -70 -28
-87 -18 -18 11 -11 24 18 28 41 7 65 3 69 -10z m38 -4 c4 -6 13 -8 21 -5 23 9
16 -11 -11 -28 -28 -18 -39 -21 -30 -6 3 6 2 10 -3 10 -6 0 -8 9 -5 20 6 22
18 26 28 9z m-2635 -29 c0 -11 -4 -20 -9 -20 -5 0 -7 9 -4 20 3 11 7 20 9 20
2 0 4 -9 4 -20z m1080 -31 c0 -5 7 -9 15 -9 8 0 15 -4 15 -10 0 -5 7 -10 15
-10 9 0 12 6 8 16 -5 14 -3 15 16 5 12 -7 26 -9 31 -6 5 3 12 1 15 -5 4 -6 16
-8 28 -5 16 5 18 4 8 -3 -20 -14 -3 -35 24 -28 18 5 29 -1 45 -21 11 -15 19
-32 16 -38 -2 -6 5 -12 16 -12 16 -2 17 1 8 13 -16 19 1 18 26 -2 10 -8 13
-12 6 -9 -9 5 -17 -4 -25 -24 -10 -28 -47 -45 -47 -22 0 5 -8 12 -17 15 -15 6
-15 5 1 -13 12 -13 16 -29 13 -42 -6 -21 3 -44 36 -88 14 -19 15 -27 5 -39
-11 -13 -10 -15 5 -9 9 3 17 2 17 -2 0 -5 18 -12 40 -16 36 -6 67 -25 40 -25
-6 0 -8 -4 -5 -10 12 -19 -6 -32 -19 -14 -12 15 -13 15 -13 -2 0 -11 4 -22 9
-25 5 -3 3 -13 -6 -21 -18 -18 -9 -33 11 -17 9 9 13 8 13 0 0 -6 12 -11 26
-11 14 0 23 4 20 9 -3 5 1 12 10 15 22 8 25 8 23 -6 -1 -7 -1 -25 0 -40 1 -31
34 -47 57 -27 13 10 14 8 10 -14 -5 -30 5 -35 24 -12 7 8 17 15 23 15 8 0 8
-3 0 -11 -6 -6 -9 -17 -7 -23 3 -7 -7 -18 -21 -24 -16 -7 -24 -17 -20 -25 4
-6 -2 -3 -12 8 -10 11 -27 21 -38 23 -15 2 -17 1 -6 -7 8 -5 11 -16 8 -25 -3
-8 -2 -18 3 -21 6 -4 10 -1 10 4 0 17 17 13 24 -5 4 -11 2 -15 -7 -11 -7 2
-26 -2 -42 -9 l-30 -14 35 5 35 5 -30 -25 c-29 -25 -29 -26 -5 -20 14 4 20 3
14 -2 -6 -4 -14 -17 -18 -28 -4 -11 -4 -16 0 -12 4 4 13 2 20 -4 16 -13 37 -2
28 14 -5 8 -3 8 7 0 19 -18 34 -16 19 2 -11 13 -10 14 4 9 9 -3 16 -12 16 -20
0 -8 5 -14 11 -14 5 0 7 -5 3 -11 -4 -8 -9 -7 -15 2 -6 10 -8 8 -7 -7 2 -16 8
-20 27 -17 23 3 23 2 6 -6 -19 -8 -19 -9 7 -21 40 -19 44 -41 11 -68 -15 -12
-36 -21 -45 -18 -20 5 -24 -9 -8 -19 7 -4 3 -13 -9 -24 -20 -18 -20 -18 5 -54
27 -40 28 -38 -31 -41 -13 -1 -19 -7 -17 -18 2 -10 -2 -18 -8 -18 -16 0 -12
32 8 46 16 12 15 13 -4 10 -11 -3 -27 0 -35 5 -11 7 -9 9 9 9 12 0 22 4 22 9
0 4 -11 6 -25 3 -19 -3 -25 -11 -25 -29 0 -22 2 -24 15 -13 8 7 15 9 15 5 0
-4 -7 -13 -16 -20 -22 -16 -2 -57 24 -49 13 5 14 4 3 -4 -7 -5 -11 -14 -7 -20
3 -6 1 -12 -5 -14 -22 -7 3 -37 29 -35 22 2 27 -2 25 -19 -2 -18 2 -21 20 -17
18 5 20 3 10 -8 -15 -15 -17 -33 -4 -25 5 3 12 -6 15 -19 4 -14 10 -24 14 -21
5 3 9 -29 10 -70 1 -62 -2 -75 -14 -70 -20 8 -18 -21 4 -34 16 -11 16 -11 -1
-6 -10 3 -32 6 -48 6 -19 0 -28 4 -23 11 4 7 -3 10 -17 9 -13 -1 -28 -1 -34 0
-5 2 -19 3 -30 4 -11 1 -19 6 -18 13 2 9 -4 10 -23 3 -33 -13 -37 -13 -28 2 4
7 3 8 -5 4 -6 -4 -19 -2 -27 5 -8 6 -17 9 -21 5 -3 -3 0 -6 8 -7 8 -1 3 -4
-11 -8 -14 -5 -33 -4 -42 1 -11 5 -18 5 -18 -1 0 -5 -33 -16 -72 -25 -158 -36
-178 -41 -178 -48 0 -5 12 -8 26 -8 23 0 25 -2 14 -15 -11 -14 -15 -14 -36 0
-22 14 -28 14 -79 -11 -30 -15 -52 -31 -48 -37 3 -5 9 -4 14 4 10 17 53 -4 67
-35 6 -11 11 -15 11 -8 1 7 -4 22 -9 33 -15 26 5 25 24 -2 8 -12 18 -19 23
-16 5 3 17 -3 27 -14 13 -15 14 -24 6 -34 -15 -17 -49 -25 -56 -13 -4 7 -9 6
-14 -1 -8 -14 -118 -22 -126 -9 -3 4 -13 8 -23 8 -19 0 -37 39 -23 50 9 6 9
32 -1 47 -5 7 -1 9 12 6 10 -3 22 0 26 6 4 7 1 10 -7 9 -8 -2 -12 5 -10 20 2
14 -4 29 -14 36 -12 9 -14 15 -5 20 8 5 8 13 -1 29 -16 28 -19 59 -7 73 7 8
-1 21 -23 39 -18 15 -27 24 -20 20 6 -3 12 -4 12 -1 0 2 3 12 7 22 4 12 3 15
-5 10 -8 -5 -12 0 -12 14 0 11 7 23 15 26 19 8 19 28 0 48 -10 9 -11 17 -5 21
15 9 2 25 -15 19 -8 -4 -13 -9 -11 -13 2 -3 -7 -17 -20 -31 -13 -13 -24 -19
-24 -12 0 6 5 12 10 12 6 0 10 5 10 10 0 6 -9 10 -19 10 -11 0 -23 5 -27 12
-4 6 -3 8 3 5 11 -7 12 1 13 81 1 23 5 42 11 42 5 0 9 -6 9 -12 0 -7 7 -2 16
10 9 13 13 29 10 37 -3 10 1 15 14 15 10 0 22 5 25 10 4 7 -2 9 -19 4 -16 -4
-26 -2 -26 5 0 6 10 11 22 11 21 0 21 0 2 15 -19 15 -19 16 0 13 11 -2 27 -16
35 -32 19 -33 32 -36 46 -10 6 11 16 19 24 19 8 0 16 6 19 14 3 10 -2 11 -18
6 -16 -5 -20 -4 -15 5 4 7 -1 18 -13 26 -12 8 -19 21 -15 29 4 11 1 13 -11 9
-11 -4 -16 -1 -16 11 0 12 -5 15 -16 11 -10 -4 -14 -1 -12 6 3 7 11 13 18 13
7 0 18 9 24 20 17 31 28 36 70 29 31 -5 37 -4 30 7 -5 8 -9 20 -10 27 -5 30
-14 41 -29 36 -8 -3 -15 -1 -15 5 0 6 -5 11 -11 11 -6 0 -8 -9 -4 -21 5 -15 4
-19 -5 -14 -7 4 -9 17 -6 31 4 14 2 24 -4 24 -5 0 -10 4 -10 10 0 5 6 7 14 4
7 -3 16 2 20 11 4 10 12 15 21 11 12 -4 13 -2 5 13 -7 14 -6 20 5 25 8 3 15
15 15 27 0 12 8 23 20 26 22 6 27 29 8 35 -6 2 -13 14 -15 27 -2 13 1 20 7 16
5 -3 10 -1 10 4 0 6 6 11 14 11 7 0 19 7 26 15 10 12 10 15 0 15 -7 0 -10 8
-7 19 3 12 -3 27 -14 37 -10 9 -19 23 -19 29 0 17 28 27 32 13 5 -14 28 -2 28
14 0 6 -3 9 -6 5 -3 -3 -19 -1 -35 5 -39 14 -42 63 -4 80 29 13 28 34 -1 31
-18 -1 -18 -1 -1 12 12 9 15 15 7 20 -8 5 -4 12 11 23 21 15 22 16 3 23 -17 6
-16 8 9 19 15 7 27 17 27 21 0 4 7 15 16 24 14 13 19 14 25 3 6 -9 8 -6 6 9
-1 17 -5 20 -18 12 -27 -14 -30 -11 -18 15 8 16 17 22 30 19 10 -3 19 -9 19
-14z m1705 0 c-4 -5 1 -9 10 -9 9 0 13 5 10 10 -3 6 -1 10 5 10 6 0 8 -12 5
-30 -3 -17 -1 -30 5 -30 5 0 10 -5 10 -11 0 -5 -5 -7 -12 -3 -8 5 -9 0 -6 -14
4 -12 3 -20 -2 -17 -4 3 -14 -3 -21 -12 -8 -9 -9 -14 -3 -10 8 5 12 -5 10 -33
-1 -40 -16 -58 -16 -20 0 18 -2 19 -20 8 -11 -7 -20 -18 -20 -25 0 -7 -8 -17
-17 -22 -13 -8 -14 -10 -4 -11 8 0 12 -3 8 -6 -3 -4 -22 4 -41 16 -29 18 -36
19 -36 6 0 -8 -5 -18 -11 -22 -15 -9 0 38 15 48 7 5 4 8 -6 8 -10 0 -18 7 -18
15 0 13 4 14 20 5 22 -12 27 -1 8 19 -9 10 -9 12 -1 7 7 -4 11 1 10 13 -1 15
-5 17 -18 10 -11 -5 -20 -5 -24 0 -8 14 13 24 47 23 17 0 31 5 35 14 3 8 11
14 19 14 8 0 14 4 14 10 0 5 -8 6 -17 3 -16 -6 -16 -5 -4 11 8 9 21 14 29 11
8 -3 16 3 19 15 3 11 9 17 14 14 5 -3 7 -10 4 -15z m-2625 -59 c0 -5 -4 -10
-10 -10 -5 0 -10 5 -10 10 0 6 5 10 10 10 6 0 10 -4 10 -10z m-32 -75 c-3 -3
-9 2 -12 12 -6 14 -5 15 5 6 7 -7 10 -15 7 -18z m2487 5 c-3 -5 -12 -10 -18
-10 -7 0 -6 4 3 10 19 12 23 12 15 0z m-2582 -75 c4 -8 2 -17 -3 -20 -6 -4
-10 3 -10 14 0 25 6 27 13 6z m1301 -40 c-4 -8 -10 -12 -15 -9 -14 8 -10 24 6
24 9 0 12 -6 9 -15z m1291 5 c3 -6 -1 -7 -9 -4 -18 7 -21 14 -7 14 6 0 13 -4
16 -10z m-2600 -27 c-8 -16 -19 -41 -25 -57 -17 -45 -22 -24 -6 22 9 23 13 42
10 42 -3 0 -2 5 1 10 3 6 12 10 20 10 11 0 11 -4 0 -27z m3195 17 c0 -5 -7 -7
-15 -4 -8 4 -15 8 -15 10 0 2 7 4 15 4 8 0 15 -4 15 -10z m-3171 -27 c-10 -12
-11 -17 -2 -20 12 -4 7 -33 -7 -33 -13 0 -18 36 -8 54 5 9 14 16 20 16 6 0 5
-7 -3 -17z m1315 -18 c-4 -8 -8 -15 -10 -15 -2 0 -4 7 -4 15 0 8 4 15 10 15 5
0 7 -7 4 -15z m-1364 -90 c0 -8 -2 -15 -4 -15 -2 0 -11 -3 -19 -6 -8 -3 -17 2
-21 12 -4 12 -2 15 9 10 8 -3 15 -1 15 4 0 6 5 10 10 10 6 0 10 -7 10 -15z
m760 -12 c0 -13 -3 -13 -15 -3 -8 7 -15 16 -15 21 0 5 7 6 15 3 8 -4 15 -13
15 -21z m2363 -40 c-4 -11 -3 -14 5 -9 7 4 12 2 12 -3 0 -6 -4 -11 -9 -11 -14
0 -23 18 -16 30 10 16 15 12 8 -7z m-1642 -2 c-8 -5 -20 -7 -28 -4 -21 8 -15
13 15 13 20 0 23 -3 13 -9z m-754 -63 c-3 -7 -5 -2 -5 12 0 14 2 19 5 13 2 -7
2 -19 0 -25z m863 18 c0 -11 -19 -15 -25 -6 -3 5 1 10 9 10 9 0 16 -2 16 -4z
m-663 -47 c-6 -10 -20 -19 -29 -19 -20 0 -21 1 -11 26 6 16 7 16 14 -2 6 -16
8 -14 8 10 1 24 3 26 16 16 11 -9 12 -16 2 -31z m-232 -20 c-11 -26 -14 -28
-10 -9 2 14 5 34 5 45 0 13 3 16 11 8 7 -7 6 -20 -6 -44z m2500 11 c3 -5 1
-10 -4 -10 -6 0 -11 5 -11 10 0 6 2 10 4 10 3 0 8 -4 11 -10z m-1519 -11 c3
-6 2 -15 -4 -21 -6 -6 -11 -2 -15 11 -5 22 7 29 19 10z m-766 -13 c0 -11 -19
-15 -25 -6 -3 5 1 10 9 10 9 0 16 -2 16 -4z m-40 -33 c0 -14 -19 -38 -25 -32
-8 8 5 39 16 39 5 0 9 -3 9 -7z m2204 -9 c5 -14 4 -15 -9 -4 -17 14 -19 20 -6
20 5 0 12 -7 15 -16z m-1467 -54 c-1 -22 -17 -28 -17 -7 0 12 9 27 16 27 2 0
2 -9 1 -20z m-941 -46 c-4 -9 -9 -15 -11 -12 -3 3 -3 13 1 22 4 9 9 15 11 12
3 -3 3 -13 -1 -22z m184 -34 c0 -6 -9 -5 -20 2 -11 7 -20 16 -20 21 0 4 9 3
20 -3 11 -6 20 -15 20 -20z m-195 0 c3 -5 1 -10 -4 -10 -6 0 -11 5 -11 10 0 6
2 10 4 10 3 0 8 -4 11 -10z m175 -35 c-12 -15 -30 -12 -30 6 0 5 10 9 21 9 18
0 19 -2 9 -15z m-189 -36 c-6 -16 -10 -18 -10 -7 -1 22 12 55 16 42 2 -6 -1
-22 -6 -35z m2037 6 c-3 -3 -9 2 -12 12 -6 14 -5 15 5 6 7 -7 10 -15 7 -18z
m290 -8 c8 -10 6 -13 -7 -13 -11 0 -17 6 -14 13 3 7 6 13 8 13 1 0 7 -6 13
-13z m-2348 -61 c0 -2 -8 -10 -17 -17 -16 -13 -17 -12 -4 4 13 16 21 21 21 13z
m2270 -41 c0 -5 -5 -3 -10 5 -5 8 -10 20 -10 25 0 6 5 3 10 -5 5 -8 10 -19 10
-25z m37 28 c-4 -3 -2 -12 5 -20 14 -17 7 -25 -11 -13 -13 8 -9 40 5 40 4 0 4
-3 1 -7z m-2333 -58 c-4 -8 -10 -15 -15 -15 -4 0 -6 7 -3 15 4 8 10 15 15 15
4 0 6 -7 3 -15z m2336 -19 c0 -3 -4 -8 -10 -11 -5 -3 -10 -1 -10 4 0 6 5 11
10 11 6 0 10 -2 10 -4z m-2180 -51 c0 -8 -4 -15 -10 -15 -5 0 -10 7 -10 15 0
8 5 15 10 15 6 0 10 -7 10 -15z m-207 -70 c-3 -9 -8 -14 -10 -11 -3 3 -2 9 2
15 9 16 15 13 8 -4z m2277 5 c0 -5 -4 -10 -10 -10 -5 0 -10 5 -10 10 0 6 5 10
10 10 6 0 10 -4 10 -10z m-1206 -9 c3 -5 -3 -11 -14 -14 -20 -5 -26 3 -13 16
9 10 21 9 27 -2z m1331 -1 c3 -5 2 -10 -3 -10 -8 0 -7 -64 2 -78 3 -5 -4 -13
-15 -20 -18 -11 -18 -11 -7 7 7 11 9 24 5 28 -5 4 -12 1 -17 -7 -6 -8 -10 -11
-10 -6 0 5 7 17 16 27 10 11 12 19 5 24 -6 3 -14 -1 -17 -9 -3 -9 -11 -13 -16
-10 -6 4 -5 10 3 14 10 7 10 12 -2 26 -13 17 -13 17 13 0 26 -17 26 -17 21 3
-5 21 11 29 22 11z m-2448 -102 c-3 -8 -6 -5 -6 6 -1 11 2 17 5 13 3 -3 4 -12
1 -19z m-665 -10 c-7 -7 -12 -8 -12 -2 0 6 3 14 7 17 3 4 9 5 12 2 2 -3 -1
-11 -7 -17z m641 -80 c-3 -18 -10 -35 -15 -36 -4 -2 -6 -7 -3 -12 3 -4 -4 -19
-16 -31 l-20 -24 4 43 c5 44 30 92 47 92 5 0 7 -14 3 -32z m2382 -4 c-9 -9
-18 -14 -21 -11 -9 9 6 27 22 27 13 0 13 -2 -1 -16z m-25 -193 c0 -5 -7 -14
-15 -21 -16 -14 -18 -10 -9 14 6 17 24 22 24 7z m-3119 -26 c16 -9 40 -32 52
-53 28 -44 80 -170 75 -182 -2 -5 -28 7 -58 26 -30 18 -63 34 -74 34 -46 0
-86 24 -97 57 -14 44 4 98 39 118 34 18 28 18 63 0z m3164 5 c-3 -5 -11 -10
-16 -10 -6 0 -7 5 -4 10 3 6 11 10 16 10 6 0 7 -4 4 -10z m-25 -30 c0 -5 -2
-10 -4 -10 -3 0 -8 5 -11 10 -3 6 -1 10 4 10 6 0 11 -4 11 -10z m-1641 -30 c9
0 30 -14 47 -32 16 -18 22 -27 14 -21 -18 14 -46 1 -36 -16 10 -16 -5 -13 -25
5 -10 9 -15 23 -12 32 4 9 2 13 -4 9 -13 -8 -26 20 -16 36 5 8 8 8 11 -1 2 -7
11 -12 21 -12z m-29 -74 c0 -1 -8 -2 -19 -2 -13 0 -17 6 -14 21 4 16 3 17 -6
5 -6 -8 -11 -10 -11 -4 0 5 5 15 12 22 8 8 14 5 25 -15 7 -14 13 -26 13 -27z
m1670 -86 c0 -5 -4 -10 -10 -10 -5 0 -10 5 -10 10 0 6 5 10 10 10 6 0 10 -4
10 -10z m90 -140 c0 -5 -2 -10 -4 -10 -3 0 -8 5 -11 10 -3 6 -1 10 4 10 6 0
11 -4 11 -10z m-2972 -125 c-3 -3 -9 2 -12 12 -6 14 -5 15 5 6 7 -7 10 -15 7
-18z m1526 -407 c13 -48 6 -95 -15 -114 -22 -19 -22 -19 -9 5 10 19 10 25 -1
32 -8 5 -11 9 -7 9 3 0 3 12 -1 28 -7 25 5 62 20 62 4 0 9 -10 13 -22z m246 7
c8 -10 9 -26 3 -52 -7 -32 -13 -38 -36 -39 -31 -1 -34 8 -10 27 9 8 14 9 10 3
-3 -6 0 -11 7 -11 10 0 11 9 3 39 -5 22 -14 35 -20 31 -6 -3 -7 -1 -3 5 10 16
31 15 46 -3z m-30 -35 c0 -5 -2 -10 -4 -10 -3 0 -8 5 -11 10 -3 6 -1 10 4 10
6 0 11 -4 11 -10z m482 -158 c9 -9 9 -12 -2 -12 -10 0 -9 -4 3 -18 24 -26 21
-35 -8 -28 -15 4 -25 2 -25 -4 0 -6 5 -8 10 -5 16 10 12 -12 -5 -29 -17 -16
-3 -32 17 -20 6 4 8 3 4 -4 -3 -5 -1 -12 6 -14 8 -3 5 -11 -10 -23 -21 -19
-31 -42 -13 -30 5 3 18 -6 29 -20 22 -27 38 -32 45 -12 3 7 6 5 6 -5 1 -23
-37 -24 -46 -1 -6 15 -7 15 -14 -3 -7 -19 -8 -19 -8 0 -1 19 -1 19 -14 1 -9
-11 -19 -15 -27 -10 -10 6 -11 4 -5 -11 5 -10 8 -32 7 -49 l-1 -30 12 25 c9
17 10 27 3 32 -7 5 -7 11 2 20 18 18 31 -2 25 -40 -4 -23 -12 -34 -29 -38 -13
-3 -24 -10 -24 -15 0 -5 -6 -6 -14 -3 -10 4 -13 0 -11 -13 2 -10 4 -20 4 -23
1 -3 5 1 10 9 6 9 9 5 9 -13 0 -27 -13 -35 -21 -13 -3 6 -6 0 -6 -14 -1 -15 5
-32 13 -39 19 -15 9 -41 -12 -33 -9 4 -21 11 -25 17 -5 6 -5 1 -2 -11 6 -23
-8 -32 -20 -13 -12 19 -22 1 -17 -27 5 -26 4 -27 -13 -13 -17 14 -18 14 -6 -7
10 -20 9 -22 -6 -16 -26 9 -33 24 -22 44 12 24 -7 35 -26 15 -9 -8 -15 -19
-15 -23 3 -17 -29 -28 -42 -15 -11 11 -10 13 1 10 7 -2 16 3 18 10 4 9 -1 10
-22 2 -30 -12 -41 -13 -32 -3 4 3 2 12 -3 18 -8 9 -6 14 5 19 8 3 15 0 15 -6
0 -6 3 -8 7 -5 3 4 -2 16 -12 27 -10 11 -15 20 -10 20 4 0 2 6 -4 13 -8 11 -5
19 14 35 27 23 31 37 15 47 -5 3 -10 2 -10 -4 0 -6 -17 -9 -37 -7 -21 2 -44
-1 -51 -7 -9 -7 -16 -7 -24 1 -6 6 -17 8 -24 5 -8 -3 -14 1 -14 11 0 16 22 13
48 -7 8 -6 12 -6 12 2 0 6 -5 11 -11 11 -6 0 -9 7 -6 15 4 8 1 17 -5 21 -6 4
-8 3 -4 -4 3 -6 2 -13 -4 -17 -5 -3 -10 -1 -10 5 0 7 -7 10 -15 7 -8 -4 -17
-1 -21 4 -3 6 -16 9 -29 7 -14 -3 -26 2 -34 14 -7 11 -7 18 -1 18 5 0 10 7 10
15 0 21 -28 19 -33 -2 -3 -10 -4 -6 -4 10 1 20 7 27 21 27 11 0 17 3 13 6 -3
4 0 13 8 20 7 8 16 19 18 26 4 10 10 8 20 -5 10 -12 17 -14 22 -8 3 6 1 11 -6
11 -8 0 -8 4 1 15 11 13 15 13 22 3 5 -8 6 -2 2 15 -5 22 -3 26 10 21 11 -4
16 0 17 12 0 11 3 14 6 7 8 -21 21 -15 31 15 8 21 11 23 11 7 1 -17 3 -17 11
-5 6 10 10 11 10 3 0 -7 7 -13 15 -13 11 0 13 8 8 32 -4 22 -3 29 6 24 6 -4 9
-12 6 -17 -4 -5 -1 -9 4 -9 6 0 11 8 11 18 0 13 2 14 9 3 10 -16 47 0 73 33
11 13 18 16 18 7 0 -7 6 -11 13 -8 8 3 20 1 28 -3 8 -6 19 -4 29 5 25 22 102
27 122 7z m-1443 -34 c-10 -38 -3 -51 10 -17 7 17 10 19 10 7 1 -10 5 -18 11
-18 5 0 7 -7 4 -15 -4 -8 -10 -13 -15 -10 -4 3 -13 -9 -18 -27 l-9 -33 -3 40
c-6 96 -5 105 11 105 5 0 5 -14 -1 -32z m1551 -102 c0 -3 -4 -8 -10 -11 -5 -3
-10 -1 -10 4 0 6 5 11 10 11 6 0 10 -2 10 -4z m570 -13 c0 -5 -5 -15 -10 -23
-8 -12 -10 -11 -10 8 0 12 5 22 10 22 6 0 10 -3 10 -7z m-650 -23 c0 -5 -2
-10 -4 -10 -3 0 -8 5 -11 10 -3 6 -1 10 4 10 6 0 11 -4 11 -10z m80 -11 c0 -6
-4 -7 -10 -4 -5 3 -10 11 -10 16 0 6 5 7 10 4 6 -3 10 -11 10 -16z m-30 1 c0
-5 -2 -10 -4 -10 -3 0 -8 5 -11 10 -3 6 -1 10 4 10 6 0 11 -4 11 -10z m18 -55
c-3 -3 -9 2 -12 12 -6 14 -5 15 5 6 7 -7 10 -15 7 -18z m-88 -109 c0 -2 -7 -9
-15 -16 -13 -11 -14 -10 -9 4 5 14 24 23 24 12z m687 -56 c1 -11 -3 -23 -9
-26 -7 -5 -9 -1 -5 9 3 10 2 17 -3 17 -6 0 -10 5 -10 10 0 19 26 10 27 -10z
m-79 -20 c0 -17 -4 -28 -9 -25 -11 8 -12 55 -1 55 5 0 9 -14 10 -30z m-1012
-6 c-4 -9 -9 -15 -11 -12 -3 3 -3 13 1 22 4 9 9 15 11 12 3 -3 3 -13 -1 -22z
m33 -18 c-9 -8 -10 -7 -5 7 3 10 7 24 7 30 1 7 3 4 6 -7 3 -10 -1 -23 -8 -30z
m355 6 c3 -5 -1 -9 -9 -9 -8 0 -15 4 -15 9 0 4 4 8 9 8 6 0 12 -4 15 -8z m738
-116 c-6 -10 -20 20 -21 44 0 8 6 4 13 -10 8 -14 12 -29 8 -34z m-31 -30 c5
-6 9 -24 8 -40 -1 -30 -1 -30 -14 9 -8 22 -13 49 -13 60 l0 20 5 -20 c3 -11 9
-24 14 -29z m-837 19 c-4 -8 -10 -15 -15 -15 -4 0 -6 7 -3 15 4 8 10 15 15 15
4 0 6 -7 3 -15z m1041 -25 c3 -5 -1 -10 -10 -10 -9 0 -13 5 -10 10 3 6 8 10
10 10 2 0 7 -4 10 -10z m-135 -34 c-7 -7 4 -23 35 -51 25 -23 45 -48 45 -55 0
-8 -12 -2 -30 15 -16 16 -30 24 -30 19 0 -6 18 -25 41 -44 31 -25 38 -35 28
-41 -8 -5 -9 -9 -3 -9 6 0 12 -11 12 -25 0 -23 -2 -23 -21 -10 -12 8 -27 15
-34 15 -20 0 -15 -17 7 -23 11 -3 20 -10 20 -16 0 -14 -17 -14 -25 -1 -3 5
-12 7 -20 3 -11 -4 -15 2 -15 21 0 16 6 26 15 26 20 0 19 16 -1 24 -9 3 -14
13 -10 21 3 8 -6 27 -19 42 -19 23 -26 26 -36 16 -19 -18 -24 -16 -38 13 l-12
27 27 -18 27 -17 -7 26 c-9 35 20 82 41 65 10 -9 11 -15 3 -23z m-1086 -5 c4
-5 -3 -7 -14 -4 -23 6 -26 13 -6 13 8 0 17 -4 20 -9z m1302 -21 c0 -11 -4 -20
-8 -20 -10 0 -11 24 -1 33 9 9 9 10 9 -13z m-39 -22 c-3 -8 -6 -5 -6 6 -1 11
2 17 5 13 3 -3 4 -12 1 -19z m-316 -31 c-8 -8 -11 -3 -11 19 1 25 2 27 11 11
8 -14 8 -22 0 -30z m324 -37 c3 -5 2 -10 -4 -10 -5 0 -13 5 -16 10 -3 6 -2 10
4 10 5 0 13 -4 16 -10z m-285 -20 c0 -5 -5 -10 -11 -10 -5 0 -7 5 -4 10 3 6 8
10 11 10 2 0 4 -4 4 -10z m-433 -42 c-3 -7 -5 -2 -5 12 0 14 2 19 5 13 2 -7 2
-19 0 -25z m438 -8 c4 -6 2 -17 -4 -24 -8 -10 -7 -17 4 -26 14 -12 22 -60 9
-60 -13 0 -36 32 -31 44 3 7 1 18 -3 22 -11 11 -2 54 11 54 4 0 11 -5 14 -10z
m295 -50 c0 -5 -4 -10 -10 -10 -5 0 -10 5 -10 10 0 6 5 10 10 10 6 0 10 -4 10
-10z m-660 -21 c0 -6 -4 -7 -10 -4 -5 3 -10 11 -10 16 0 6 5 7 10 4 6 -3 10
-11 10 -16z m715 1 c3 -5 -1 -10 -9 -10 -9 0 -16 5 -16 10 0 6 4 10 9 10 6 0
13 -4 16 -10z m-385 -37 c0 -18 -10 -16 -26 5 -20 25 -17 34 6 20 11 -7 20
-18 20 -25z m350 -18 c8 -9 8 -15 2 -15 -18 0 -42 12 -42 21 0 14 26 10 40 -6z
m-291 -26 c9 -15 15 -18 20 -10 5 7 15 2 32 -16 l24 -27 -27 17 c-16 10 -28
13 -28 7 0 -6 -11 -3 -25 6 -14 9 -25 23 -25 30 0 21 13 17 29 -7z m65 5 c3
-8 2 -12 -4 -9 -6 3 -10 10 -10 16 0 14 7 11 14 -7z m-114 -59 c0 -7 4 -15 9
-17 13 -4 26 -58 14 -58 -5 0 -18 6 -28 14 -16 12 -17 16 -6 30 7 9 11 17 7
17 -3 1 -10 3 -16 4 -5 1 -13 3 -16 4 -4 0 -1 8 6 16 14 16 30 11 30 -10z m50
-8 c0 -5 -4 -5 -10 -2 -5 3 -10 14 -10 23 0 15 2 15 10 2 5 -8 10 -19 10 -23z
m77 -43 c-3 -4 -13 -2 -20 4 -8 7 -16 9 -19 6 -3 -2 -5 7 -5 22 l0 26 25 -26
c14 -14 23 -28 19 -32z m113 47 c0 -5 -7 -11 -15 -15 -9 -3 -15 0 -15 9 0 8 7
15 15 15 8 0 15 -4 15 -9z m-290 -46 c0 -8 -4 -17 -10 -20 -6 -3 -9 4 -8 19 2
25 18 26 18 1z m-200 -13 c0 -15 -2 -15 -10 -2 -13 20 -13 33 0 25 6 -3 10
-14 10 -23z m440 13 c17 -9 30 -20 30 -25 0 -19 -16 -15 -45 12 -33 31 -28 35
15 13z m-100 -26 c0 -6 -4 -7 -10 -4 -5 3 -10 11 -10 16 0 6 5 7 10 4 6 -3 10
-11 10 -16z m267 -24 c8 -9 13 -19 9 -22 -3 -4 -12 -1 -18 5 -7 7 -20 12 -29
12 -9 0 -23 8 -30 17 -13 15 -11 16 19 10 18 -4 40 -14 49 -22z m-393 6 c3 -5
-1 -11 -9 -14 -9 -4 -12 -1 -8 9 6 16 10 17 17 5z m-1284 -16 c-14 -8 -29 -14
-35 -14 -5 0 1 6 15 14 14 8 30 14 35 14 6 0 -1 -6 -15 -14z m1045 5 c3 -5 1
-10 -4 -10 -6 0 -11 5 -11 10 0 6 2 10 4 10 3 0 8 -4 11 -10z m410 -6 c11 -8
34 -14 52 -14 17 0 38 -7 46 -15 8 -8 17 -12 20 -9 3 3 15 1 26 -6 18 -9 21
-8 21 7 0 23 23 1 27 -27 3 -23 -1 -24 -28 -10 -11 6 -25 8 -32 3 -6 -4 -21
-8 -32 -9 -23 -2 -60 15 -51 23 3 4 -3 12 -13 20 -22 14 -48 9 -53 -12 -2 -10
-14 -6 -42 13 -22 15 -41 32 -43 38 -5 16 78 14 102 -2z m-355 -24 c0 -5 -4
-10 -9 -10 -6 0 -13 5 -16 10 -3 6 1 10 9 10 9 0 16 -4 16 -10z m68 -15 c-3
-3 -9 2 -12 12 -6 14 -5 15 5 6 7 -7 10 -15 7 -18z m577 5 c3 -6 -1 -13 -10
-16 -19 -8 -30 0 -20 15 8 14 22 14 30 1z m-514 -23 c-1 -12 -15 -9 -19 4 -3
6 1 10 8 8 6 -3 11 -8 11 -12z m554 3 c3 -5 2 -10 -4 -10 -5 0 -13 5 -16 10
-3 6 -2 10 4 10 5 0 13 -4 16 -10z m-510 -50 c0 -13 -6 -25 -14 -28 -8 -3 -11
0 -8 6 4 5 0 15 -9 22 -12 11 -12 15 -2 21 20 13 33 5 33 -21z m140 20 c3 -5
-1 -10 -9 -10 -8 0 -18 5 -21 10 -3 6 1 10 9 10 8 0 18 -4 21 -10z m-60 -46
c30 -19 32 -34 6 -34 -19 0 -35 -25 -26 -40 3 -5 19 -8 35 -8 35 1 48 -8 33
-23 -12 -12 -83 13 -83 29 0 5 -11 14 -25 20 -30 14 -33 32 -5 32 13 0 20 7
20 20 0 24 13 25 45 4z m-260 -22 c-3 -3 -11 0 -18 7 -9 10 -8 11 6 5 10 -3
15 -9 12 -12z m140 -61 c3 -5 1 -12 -5 -16 -5 -3 -10 1 -10 9 0 18 6 21 15 7z
m59 3 c23 -9 20 -24 -4 -24 -11 0 -20 7 -20 15 0 17 2 18 24 9z m-5614 -44 c0
-5 -4 -10 -10 -10 -5 0 -10 5 -10 10 0 6 5 10 10 10 6 0 10 -4 10 -10z m-201
-16 c3 -4 -6 -5 -21 -2 -15 3 -29 2 -30 -2 -2 -5 -9 -2 -16 6 -11 12 -7 13 24
9 20 -2 40 -7 43 -11z m161 -4 c0 -5 -4 -10 -10 -10 -5 0 -10 5 -10 10 0 6 5
10 10 10 6 0 10 -4 10 -10z m-190 -45 c0 -14 -4 -25 -9 -25 -4 0 -6 11 -3 25
2 14 6 25 8 25 2 0 4 -11 4 -25z m-280 5 c0 -5 -2 -10 -4 -10 -3 0 -8 5 -11
10 -3 6 -1 10 4 10 6 0 11 -4 11 -10z m880 -451 c0 -5 -4 -9 -10 -9 -5 0 -10
7 -10 16 0 8 5 12 10 9 6 -3 10 -10 10 -16z m3296 -694 c-11 -8 -25 -15 -30
-15 -6 0 -2 7 8 15 11 8 25 15 30 15 6 0 2 -7 -8 -15z"/>
<path d="M5601 7707 c-8 -11 -5 -13 19 -9 16 2 27 8 24 13 -8 13 -30 11 -43
-4z"/>
<path d="M6073 7588 c0 -7 -2 -17 -3 -23 -5 -22 1 -35 16 -35 12 0 15 6 10 23
-3 12 -6 28 -6 35 0 6 -4 12 -8 12 -5 0 -9 -6 -9 -12z"/>
<path d="M5930 7532 c0 -19 86 -70 98 -58 8 9 -19 36 -35 36 -8 0 -21 7 -29
15 -17 16 -34 20 -34 7z"/>
<path d="M6090 7480 c0 -5 5 -10 10 -10 6 0 10 5 10 10 0 6 -4 10 -10 10 -5 0
-10 -4 -10 -10z"/>
<path d="M9244 7314 c3 -9 6 -18 6 -20 0 -3 4 -3 10 1 11 7 2 35 -12 35 -6 0
-7 -7 -4 -16z"/>
<path d="M5877 6789 c4 -13 8 -18 11 -10 2 7 -1 18 -6 23 -8 8 -9 4 -5 -13z"/>
<path d="M5827 6693 c-12 -12 -7 -22 8 -17 8 4 15 10 15 15 0 11 -14 12 -23 2z"/>
<path d="M5870 6660 c-11 -6 -12 -12 -4 -20 13 -13 46 -2 41 13 -5 15 -20 18
-37 7z"/>
<path d="M5810 6646 c0 -9 30 -14 35 -6 4 6 -3 10 -14 10 -12 0 -21 -2 -21 -4z"/>
<path d="M6780 5640 c0 -6 4 -10 9 -10 5 0 12 -10 14 -22 4 -21 4 -20 6 3 0
16 -5 29 -14 33 -8 3 -15 1 -15 -4z"/>
<path d="M5430 5351 c0 -6 5 -13 10 -16 6 -3 10 1 10 9 0 9 -4 16 -10 16 -5 0
-10 -4 -10 -9z"/>
<path d="M5480 5259 c0 -5 5 -7 10 -4 6 3 10 8 10 11 0 2 -4 4 -10 4 -5 0 -10
-5 -10 -11z"/>
<path d="M5126 5181 c-4 -5 0 -12 6 -14 10 -4 10 -7 0 -15 -11 -8 -11 -10 0
-15 10 -3 14 3 14 24 0 29 -9 38 -20 20z"/>
<path d="M5432 5143 c-7 -13 -7 -24 0 -34 8 -12 9 -11 5 2 -3 9 0 22 6 28 6 6
8 13 5 17 -4 3 -11 -3 -16 -13z"/>
<path d="M5180 5029 c0 -5 5 -7 10 -4 6 3 10 8 10 11 0 2 -4 4 -10 4 -5 0 -10
-5 -10 -11z"/>
<path d="M5220 4900 c-8 -16 -8 -20 4 -20 9 0 14 8 13 20 -1 11 -2 20 -4 20
-1 0 -7 -9 -13 -20z"/>
<path d="M5638 4903 c7 -3 16 -2 19 1 4 3 -2 6 -13 5 -11 0 -14 -3 -6 -6z"/>
<path d="M5650 4876 c0 -2 7 -7 16 -10 8 -3 12 -2 9 4 -6 10 -25 14 -25 6z"/>
<path d="M5106 4861 c-3 -5 1 -11 9 -15 8 -3 15 -1 15 4 0 13 -18 22 -24 11z"/>
<path d="M5625 4845 c8 -37 8 -37 29 -29 20 8 21 24 1 24 -7 0 -19 8 -25 18
-9 14 -10 11 -5 -13z"/>
<path d="M5685 4850 c-3 -5 -1 -10 4 -10 6 0 11 5 11 10 0 6 -2 10 -4 10 -3 0
-8 -4 -11 -10z"/>
<path d="M5057 4763 c-13 -12 -7 -23 11 -22 10 0 12 3 4 6 -6 2 -10 9 -6 14 6
10 0 12 -9 2z"/>
<path d="M5056 4602 c-3 -6 -1 -14 5 -17 15 -10 25 3 12 16 -7 7 -13 7 -17 1z"/>
<path d="M5746 4583 c-3 -3 -3 -10 0 -14 7 -12 34 -11 34 0 0 11 -26 22 -34
14z"/>
<path d="M5815 4539 c-4 -6 -5 -13 -2 -16 7 -7 27 6 27 18 0 12 -17 12 -25 -2z"/>
<path d="M4967 4389 c-9 -6 -14 -15 -11 -21 5 -8 1 -9 -10 -5 -14 6 -15 3 -6
-13 6 -11 16 -20 22 -20 5 0 8 -9 5 -20 -6 -25 24 -44 54 -35 19 6 19 8 5 24
-9 10 -16 35 -16 59 0 44 -9 50 -43 31z"/>
<path d="M5070 4390 c0 -5 5 -10 10 -10 6 0 10 5 10 10 0 6 -4 10 -10 10 -5 0
-10 -4 -10 -10z"/>
<path d="M5041 4324 c0 -11 3 -14 6 -6 3 7 2 16 -1 19 -3 4 -6 -2 -5 -13z"/>
<path d="M5170 3929 c0 -5 5 -7 10 -4 6 3 10 8 10 11 0 2 -4 4 -10 4 -5 0 -10
-5 -10 -11z"/>
<path d="M6145 2810 c-10 -11 -15 -20 -11 -20 11 0 39 30 34 36 -3 2 -13 -5
-23 -16z"/>
<path d="M5887 2601 c6 -7 9 -20 6 -27 -3 -8 -3 -14 0 -14 14 0 14 30 -1 41
-14 11 -15 11 -5 0z"/>
<path d="M6115 2456 c-16 -7 -25 -15 -20 -18 6 -3 23 -1 40 6 16 7 25 15 20
18 -6 3 -23 1 -40 -6z"/>
<path d="M6055 2420 c-3 -5 -2 -10 4 -10 5 0 13 5 16 10 3 6 2 10 -4 10 -5 0
-13 -4 -16 -10z"/>
<path d="M6062 2403 c-6 -2 -10 -9 -7 -13 3 -5 12 -7 19 -4 7 3 16 -2 20 -11
3 -9 10 -14 16 -10 7 5 -23 47 -32 44 -2 0 -9 -3 -16 -6z"/>
<path d="M6270 2380 c0 -5 5 -10 11 -10 5 0 7 5 4 10 -3 6 -8 10 -11 10 -2 0
-4 -4 -4 -10z"/>
<path d="M560 8749 c-43 -11 -118 -20 -176 -22 -84 -2 -103 1 -118 16 -19 19
-66 23 -66 6 0 -6 -6 -9 -12 -6 -7 2 -29 -1 -48 -8 -19 -7 -59 -11 -88 -9
l-52 2 0 -611 c0 -358 4 -606 9 -598 5 8 16 11 26 7 21 -8 55 10 55 29 0 10
10 15 30 15 17 0 30 5 30 11 0 7 10 9 26 5 14 -4 23 -3 21 1 -3 4 11 9 31 11
20 1 38 6 42 11 6 10 51 26 63 23 4 -1 18 3 30 10 12 6 49 13 83 16 52 3 70
-1 132 -29 40 -18 74 -40 77 -49 3 -8 32 -28 65 -44 51 -23 69 -27 106 -21 24
3 42 10 40 14 -6 10 62 43 74 36 4 -3 10 0 12 5 5 15 86 -15 114 -41 11 -11
38 -54 58 -97 77 -158 94 -187 105 -185 6 2 11 -2 11 -8 0 -5 8 -9 18 -8 29 3
38 0 63 -21 34 -28 40 -34 79 -86 45 -58 100 -119 100 -110 0 9 18 -9 51 -54
33 -44 59 -70 93 -94 14 -10 26 -24 26 -31 0 -7 7 -15 15 -19 8 -3 20 -17 27
-31 10 -22 17 -25 50 -22 47 5 46 4 52 50 2 20 7 40 10 45 5 8 11 95 21 270 1
29 -4 81 -11 115 -7 34 -13 97 -14 141 0 99 -33 244 -67 293 -46 67 -100 196
-112 268 -7 39 -22 94 -33 123 -21 53 -56 87 -170 162 -21 14 -38 30 -38 37 0
13 -129 132 -183 168 -19 13 -47 27 -63 31 -57 14 -103 44 -157 106 -48 55
-64 66 -124 87 -37 12 -80 31 -95 42 -93 65 -123 71 -218 48z"/>
<path d="M7915 7590 c-10 -16 15 -40 41 -40 31 0 31 13 -1 34 -29 19 -32 19
-40 6z"/>
<path d="M4612 7560 c-7 -11 -8 -20 -2 -20 5 0 14 9 20 20 6 11 7 20 3 20 -5
0 -14 -9 -21 -20z"/>
<path d="M6426 7474 c-4 -10 -1 -21 6 -26 29 -18 36 -5 14 25 -13 16 -14 16
-20 1z"/>
<path d="M7946 7453 c9 -21 21 -46 26 -56 5 -10 6 -22 3 -26 -3 -5 4 -20 15
-32 l20 -24 6 22 c3 12 16 25 27 29 19 6 47 27 47 36 0 7 -68 78 -74 78 -4 0
-6 -6 -5 -12 1 -7 1 -22 0 -33 -2 -17 -7 -14 -35 18 -18 20 -36 37 -39 37 -4
0 1 -17 9 -37z"/>
<path d="M8668 7434 c-9 -8 9 -44 22 -44 14 0 12 13 -3 34 -7 9 -16 14 -19 10z"/>
<path d="M8637 7359 c7 -7 15 -10 18 -7 3 3 -2 9 -12 12 -14 6 -15 5 -6 -5z"/>
<path d="M6480 7250 c0 -5 5 -10 11 -10 5 0 7 5 4 10 -3 6 -8 10 -11 10 -2 0
-4 -4 -4 -10z"/>
<path d="M9320 7050 c0 -5 5 -10 11 -10 5 0 7 5 4 10 -3 6 -8 10 -11 10 -2 0
-4 -4 -4 -10z"/>
<path d="M6540 6900 c0 -13 18 -22 24 -11 3 5 -1 11 -9 15 -8 3 -15 1 -15 -4z"/>
<path d="M6325 6870 c-3 -5 -1 -10 4 -10 6 0 11 5 11 10 0 6 -2 10 -4 10 -3 0
-8 -4 -11 -10z"/>
<path d="M6329 6828 c5 -14 7 -29 3 -34 -4 -4 -1 -4 6 0 17 10 15 31 -3 46
-14 11 -14 10 -6 -12z"/>
<path d="M9464 6809 c-8 -14 21 -43 35 -35 8 5 8 13 1 27 -12 21 -25 25 -36 8z"/>
<path d="M6299 6793 c-1 -5 -1 -16 0 -25 1 -9 -7 -19 -19 -23 -11 -3 -18 -11
-15 -16 9 -13 45 -11 47 4 5 43 4 67 -3 67 -5 0 -10 -3 -10 -7z"/>
<path d="M6465 6790 c-3 -5 1 -10 9 -10 9 0 16 5 16 10 0 6 -4 10 -9 10 -6 0
-13 -4 -16 -10z"/>
<path d="M6345 6780 c-3 -5 -2 -10 4 -10 5 0 13 5 16 10 3 6 2 10 -4 10 -5 0
-13 -4 -16 -10z"/>
<path d="M6330 6640 c0 -5 5 -10 11 -10 5 0 7 5 4 10 -3 6 -8 10 -11 10 -2 0
-4 -4 -4 -10z"/>
<path d="M0 6235 l0 -367 38 -37 c62 -61 105 -82 180 -88 56 -4 70 -2 82 12
20 24 50 145 36 145 -6 0 -5 4 3 9 7 5 14 20 14 35 0 14 3 26 8 26 5 0 9 7 9
15 0 8 5 15 10 15 6 0 10 4 10 10 0 5 16 33 36 61 21 28 38 62 40 77 4 32 -15
102 -28 102 -14 0 -9 15 13 39 19 20 29 23 76 19 30 -3 56 -1 58 3 9 13 -13
55 -47 92 -43 45 -154 127 -179 132 -11 2 -47 11 -82 20 -34 9 -81 18 -103 21
-23 3 -51 6 -62 9 -11 2 -41 7 -66 10 l-46 7 0 -367z"/>
<path d="M6334 6585 c26 -20 42 -19 22 0 -8 8 -21 15 -28 15 -8 -1 -6 -6 6
-15z"/>
<path d="M9605 6540 c3 -5 11 -10 16 -10 6 0 7 5 4 10 -3 6 -11 10 -16 10 -6
0 -7 -4 -4 -10z"/>
<path d="M2570 6517 c-8 -7 -23 -24 -32 -38 -16 -25 -16 -28 2 -44 11 -10 20
-14 20 -9 0 5 7 0 15 -10 12 -16 15 -17 15 -4 0 11 7 14 26 10 24 -4 25 -3 13
17 -8 11 -18 21 -23 21 -4 0 -3 7 4 15 7 8 8 15 3 15 -6 0 -14 9 -19 19 -7 16
-12 18 -24 8z"/>
<path d="M2512 6485 c-11 -12 -10 -15 3 -15 8 0 15 7 15 15 0 18 -2 18 -18 0z"/>
<path d="M4149 6474 c-12 -16 -12 -17 4 -11 9 3 17 2 17 -3 0 -5 8 -6 17 -3
14 5 14 8 2 11 -7 3 -17 9 -20 14 -3 5 -12 1 -20 -8z"/>
<path d="M6678 6473 c6 -2 18 -2 25 0 6 3 1 5 -13 5 -14 0 -19 -2 -12 -5z"/>
<path d="M1786 6384 c-4 -13 -11 -24 -16 -24 -5 0 -12 -22 -16 -50 -4 -27 -12
-54 -19 -60 -18 -15 -7 -90 18 -117 18 -21 22 -21 54 -8 39 16 62 37 80 72 15
29 1 102 -27 143 -10 14 -18 29 -18 34 -1 4 -12 14 -26 21 -22 12 -25 11 -30
-11z"/>
<path d="M4130 6398 c0 -9 5 -20 10 -23 13 -8 13 5 0 25 -8 13 -10 13 -10 -2z"/>
<path d="M6790 6390 c19 -13 30 -13 30 0 0 6 -10 10 -22 10 -19 0 -20 -2 -8
-10z"/>
<path d="M2036 6382 c-3 -6 -3 -17 0 -26 3 -9 1 -16 -5 -16 -17 0 -13 -28 8
-49 19 -19 19 -19 16 36 -3 56 -9 71 -19 55z m9 -62 c3 -5 1 -10 -4 -10 -6 0
-11 5 -11 10 0 6 2 10 4 10 3 0 8 -4 11 -10z"/>
<path d="M6875 6360 c28 -12 37 -12 30 0 -3 6 -16 10 -28 9 -21 0 -21 -1 -2
-9z"/>
<path d="M2027 6283 c-4 -3 -7 -11 -7 -17 0 -6 5 -5 12 2 6 6 9 14 7 17 -3 3
-9 2 -12 -2z"/>
<path d="M9901 6170 c-18 -4 -40 -15 -48 -23 -14 -13 -13 -16 5 -26 32 -17 95
-110 113 -166 l16 -50 7 35 c4 19 6 80 4 135 l-3 100 -30 2 c-16 1 -45 -2 -64
-7z"/>
<path d="M2261 6109 c-13 -5 -32 -7 -42 -4 -11 4 -19 2 -19 -5 0 -7 -9 -9 -22
-5 -13 3 -18 3 -12 -2 12 -9 13 -52 0 -71 -4 -7 -5 -16 -2 -19 3 -3 -5 -16
-18 -28 -13 -12 -28 -31 -34 -41 -6 -11 -23 -26 -39 -34 -15 -8 -34 -21 -41
-27 -7 -7 -17 -13 -22 -13 -8 0 -4 -185 6 -250 11 -73 5 -112 -29 -197 -49
-122 -48 -117 -22 -145 13 -14 21 -28 19 -31 -3 -3 5 -11 17 -18 18 -9 24 -9
27 0 3 8 8 6 17 -5 13 -19 45 -28 45 -14 0 5 18 3 41 -5 31 -11 40 -12 36 -2
-3 9 26 12 123 12 71 0 132 -4 136 -8 5 -4 0 -5 -11 -1 -16 5 -17 4 -9 -5 9
-9 17 -10 31 -2 22 11 66 4 57 -10 -3 -5 0 -9 5 -9 6 0 11 4 11 10 0 6 9 6 24
0 17 -6 29 -5 42 5 11 8 26 15 34 15 30 1 97 80 85 99 -3 5 0 11 5 13 22 7 33
365 15 478 -3 19 -8 55 -12 80 -3 25 -10 51 -15 57 -14 18 -17 86 -5 101 14
18 -21 43 -53 37 -18 -4 -21 -3 -11 4 11 7 2 11 -32 16 -26 4 -47 11 -47 16 0
4 -8 8 -17 7 -10 0 -34 3 -53 7 -26 5 -31 4 -20 -4 12 -8 8 -11 -18 -11 -24 0
-31 3 -26 13 5 8 3 8 -9 -2 -9 -7 -28 -11 -42 -9 -14 3 -30 -1 -36 -8 -12 -14
-33 -9 -24 6 9 14 -8 18 -34 9z"/>
<path d="M7025 6080 c3 -5 10 -10 16 -10 5 0 9 5 9 10 0 6 -7 10 -16 10 -8 0
-12 -4 -9 -10z"/>
<path d="M6936 6032 c-3 -5 8 -6 25 -4 16 2 29 6 29 8 0 8 -49 4 -54 -4z"/>
<path d="M7010 6000 c-18 -12 -2 -12 25 0 13 6 15 9 5 9 -8 0 -22 -4 -30 -9z"/>
<path d="M9594 5951 c-64 -48 -85 -73 -110 -129 -37 -82 -32 -113 25 -141 23
-12 51 -18 76 -16 22 2 70 6 108 9 37 3 71 7 76 10 12 8 5 120 -8 124 -6 2
-11 8 -11 13 0 6 -17 31 -37 55 -21 25 -37 50 -35 56 3 11 -26 48 -38 48 -4 0
-25 -13 -46 -29z"/>
<path d="M7070 5870 c-23 -7 -23 -8 -3 -9 12 -1 25 4 28 9 3 6 5 10 3 9 -2 -1
-14 -5 -28 -9z"/>
<path d="M7005 5860 c-19 -8 -19 -9 3 -9 12 -1 22 4 22 9 0 6 -1 10 -2 9 -2 0
-12 -4 -23 -9z"/>
<path d="M7050 5739 c0 -5 11 -9 25 -9 14 0 25 2 25 4 0 2 -11 6 -25 8 -14 3
-25 1 -25 -3z"/>
<path d="M7085 5710 c-3 -5 1 -10 9 -10 9 0 16 5 16 10 0 6 -4 10 -9 10 -6 0
-13 -4 -16 -10z"/>
<path d="M9407 5618 c-25 -25 -67 -173 -67 -235 0 -21 -7 -37 -22 -47 l-21
-15 31 -32 c18 -18 32 -29 32 -24 0 5 7 0 15 -11 8 -10 15 -31 15 -46 0 -15 5
-30 12 -34 21 -13 -22 -35 -44 -23 -26 14 -32 6 -35 -44 -2 -26 -21 -77 -48
-132 -49 -98 -67 -183 -45 -210 16 -19 60 -19 104 -1 40 17 76 46 76 62 0 6 7
18 16 25 15 12 29 39 34 64 3 18 31 43 55 49 13 3 54 0 91 -8 54 -12 72 -20
91 -45 14 -17 30 -31 38 -31 13 0 58 53 81 95 6 11 31 35 55 53 33 26 53 53
83 115 35 74 39 92 43 183 6 109 -2 138 -52 188 -14 14 -25 29 -25 34 0 14
-33 39 -62 46 -19 4 -41 -1 -74 -19 -25 -13 -50 -22 -55 -19 -5 3 -9 0 -9 -5
0 -14 -36 -14 -62 0 -12 6 -34 25 -48 41 -23 25 -35 30 -86 32 -32 1 -67 6
-76 10 -12 5 -25 0 -41 -16z"/>
<path d="M1706 5612 c-6 -10 0 -60 11 -97 6 -16 9 -41 8 -53 -2 -31 35 -46 70
-30 30 14 30 14 5 85 -27 76 -75 125 -94 95z"/>
<path d="M7420 5595 c0 -9 6 -12 15 -9 8 4 12 10 9 15 -8 14 -24 10 -24 -6z"/>
<path d="M7750 5490 c0 -5 5 -10 11 -10 5 0 7 5 4 10 -3 6 -8 10 -11 10 -2 0
-4 -4 -4 -10z"/>
<path d="M18 5393 c-14 -35 -12 -49 11 -72 16 -16 18 -16 32 3 16 22 17 37 4
74 -10 30 -33 28 -47 -5z"/>
<path d="M9302 5198 c2 -6 10 -14 16 -16 7 -2 10 2 6 12 -7 18 -28 22 -22 4z"/>
<path d="M2350 5196 c0 -2 9 -6 20 -9 11 -3 20 -1 20 4 0 5 -9 9 -20 9 -11 0
-20 -2 -20 -4z"/>
<path d="M9976 4951 c-4 -7 -5 -15 -2 -18 9 -9 19 4 14 18 -4 11 -6 11 -12 0z"/>
<path d="M7303 4757 c15 -6 27 -14 27 -19 0 -4 5 -8 10 -8 6 0 10 4 10 8 0 10
-46 32 -63 31 -7 -1 0 -6 16 -12z"/>
<path d="M0 4690 c0 -58 4 -76 18 -89 11 -9 24 -32 31 -52 15 -48 54 -81 87
-75 34 7 43 16 16 16 -12 0 -22 5 -22 10 0 6 5 10 12 10 9 0 9 3 0 12 -7 7
-12 20 -12 31 0 11 -4 15 -12 11 -8 -5 -9 -2 -5 10 4 10 -2 26 -15 41 -12 14
-23 32 -24 40 -3 19 -40 79 -59 95 -13 11 -15 3 -15 -60z"/>
<path d="M7255 4640 c-3 -5 1 -10 10 -10 9 0 13 5 10 10 -3 6 -8 10 -10 10 -2
0 -7 -4 -10 -10z"/>
<path d="M7385 4600 c3 -5 8 -10 11 -10 2 0 4 5 4 10 0 6 -5 10 -11 10 -5 0
-7 -4 -4 -10z"/>
<path d="M7320 4546 c0 -2 7 -7 16 -10 8 -3 12 -2 9 4 -6 10 -25 14 -25 6z"/>
<path d="M120 4460 c-13 -8 -12 -12 3 -27 17 -17 18 -17 11 1 -5 13 -4 17 4
12 7 -4 12 -3 12 3 0 15 -15 21 -30 11z"/>
<path d="M9156 4403 c-15 -15 -4 -43 29 -72 51 -45 59 -38 23 20 -34 54 -42
62 -52 52z"/>
<path d="M140 4385 c-7 -8 -23 -13 -36 -11 -16 3 -28 -2 -37 -15 -8 -10 -17
-16 -20 -12 -4 3 -7 -3 -7 -15 0 -12 -6 -21 -12 -19 -8 1 -12 -6 -10 -18 4
-25 68 -88 91 -90 9 0 22 -4 29 -9 7 -4 12 -2 12 5 0 6 10 9 23 7 32 -6 62 40
40 61 -8 7 -12 19 -9 27 3 8 -1 14 -8 14 -7 0 -21 10 -32 22 -10 12 -13 18 -6
14 6 -4 12 -2 12 3 0 6 -7 11 -16 11 -14 0 -14 3 -4 15 7 9 11 18 8 20 -3 3
-11 -1 -18 -10z"/>
<path d="M2005 4330 c-3 -5 0 -10 7 -10 9 0 9 -3 -2 -10 -13 -8 -12 -10 3 -10
9 0 17 6 17 14 0 19 -17 29 -25 16z"/>
<path d="M7150 4320 c-9 -6 -10 -10 -3 -10 6 0 15 5 18 10 8 12 4 12 -15 0z"/>
<path d="M7227 4283 c-12 -12 -7 -22 8 -17 8 4 15 10 15 15 0 11 -14 12 -23 2z"/>
<path d="M9355 4270 c-17 -7 -15 -9 14 -17 19 -5 48 -7 65 -5 29 5 29 5 8 13
-38 14 -66 17 -87 9z"/>
<path d="M7095 4109 c-4 -6 -5 -12 -2 -15 2 -3 7 2 10 11 7 17 1 20 -8 4z"/>
<path d="M7050 4042 c0 -5 7 -13 16 -16 10 -4 14 -1 12 6 -5 15 -28 23 -28 10z"/>
<path d="M230 3982 c-25 -13 -75 -49 -112 -78 -37 -30 -78 -59 -92 -66 l-26
-11 0 -442 c0 -412 1 -443 18 -449 9 -4 28 -13 42 -20 52 -29 69 -29 76 -2 3
14 3 34 -1 43 -18 42 -3 73 34 73 25 0 61 45 56 71 -2 12 -7 49 -10 83 -3 33
-8 79 -10 101 -3 22 -7 85 -10 140 -3 55 -7 113 -9 129 -8 51 58 172 119 216
35 26 58 80 63 150 4 63 3 68 -17 75 -48 15 -78 12 -121 -13z"/>
<path d="M731 3737 c0 -11 -12 -20 -31 -23 -16 -4 -35 -13 -41 -20 -6 -8 -18
-14 -25 -14 -8 0 -23 -9 -34 -20 -11 -11 -20 -17 -20 -14 0 22 -74 -89 -99
-150 -27 -65 -31 -87 -32 -168 -1 -192 26 -271 132 -386 19 -19 21 -32 18
-110 -1 -48 -1 -107 -1 -132 3 -66 47 -304 84 -455 11 -44 20 -84 21 -90 1
-14 37 -47 37 -35 0 6 6 10 13 10 8 0 22 9 32 20 10 11 22 17 28 13 6 -4 8 0
4 10 -4 11 3 18 24 26 17 6 28 15 24 21 -3 5 2 13 12 17 20 8 19 7 78 58 22
19 43 35 47 35 4 0 14 13 23 29 8 16 24 32 35 36 11 3 20 11 20 16 0 12 32 44
53 52 10 4 22 18 27 33 7 17 15 24 26 20 8 -3 12 -2 9 4 -3 5 -1 18 4 27 6 10
11 12 11 6 0 -7 4 -13 9 -13 6 0 8 9 6 20 -2 12 2 20 10 20 8 0 17 5 21 12 4
7 3 8 -4 4 -18 -11 -14 -2 10 25 14 17 19 19 15 7 -7 -21 8 -25 16 -4 3 7 0
19 -6 25 -8 8 -5 11 14 11 19 0 21 2 9 10 -10 7 -12 12 -4 18 6 4 14 17 18 30
4 12 11 20 16 17 12 -8 40 48 40 80 0 18 -7 28 -26 35 -14 6 -30 8 -35 4 -5
-3 -9 -1 -9 3 0 9 -79 10 -95 2 -6 -3 -23 -5 -40 -4 -16 1 -33 -3 -37 -9 -5
-7 -8 -7 -8 2 0 8 -10 11 -30 7 -18 -3 -30 -1 -30 5 0 7 -6 7 -20 0 -16 -8
-22 -8 -26 3 -3 8 -13 13 -22 10 -9 -2 -27 5 -39 16 -23 22 -38 28 -28 11 9
-14 -7 -12 -29 5 -10 8 -23 12 -28 9 -5 -3 -16 0 -25 8 -15 11 -16 11 -10 -6
6 -16 5 -17 -8 -6 -20 17 -19 30 3 30 10 0 29 11 41 24 12 13 42 29 67 36 24
7 44 16 44 21 0 4 13 10 29 14 16 3 45 22 65 41 19 19 38 34 41 34 3 0 22 17
43 38 20 21 69 64 109 96 72 57 168 160 194 206 14 26 39 90 39 101 0 17 -38
0 -70 -31 -20 -19 -45 -42 -55 -50 -28 -21 -187 -100 -202 -100 -7 0 -13 -5
-13 -11 0 -6 -7 -9 -15 -6 -8 4 -17 2 -19 -2 -18 -28 -157 24 -173 64 -3 8 -8
13 -12 10 -4 -2 -7 6 -6 18 1 12 -2 28 -8 35 -14 17 -16 65 -4 73 5 4 6 12 2
19 -6 9 -10 9 -17 -1 -8 -11 -9 -10 -4 3 3 10 1 20 -4 23 -5 3 -5 16 2 31 10
21 9 27 -10 40 -12 8 -20 20 -17 25 4 5 1 9 -5 9 -6 0 -9 4 -5 9 13 22 -72 37
-92 17 -4 -3 -13 0 -21 7 -13 10 -15 9 -9 -5 3 -10 2 -18 -3 -18 -5 0 -11 10
-13 23 -3 15 -5 16 -6 4z m179 -91 c0 -3 -4 -8 -10 -11 -5 -3 -10 -1 -10 4 0
6 5 11 10 11 6 0 10 -2 10 -4z"/>
<path d="M7920 3747 c0 -3 12 -12 26 -22 15 -9 23 -12 20 -6 -7 11 -46 35 -46
28z"/>
<path d="M8075 3650 c3 -5 11 -10 16 -10 6 0 7 5 4 10 -3 6 -11 10 -16 10 -6
0 -7 -4 -4 -10z"/>
<path d="M920 3599 c0 -5 5 -7 10 -4 6 3 10 8 10 11 0 2 -4 4 -10 4 -5 0 -10
-5 -10 -11z"/>
<path d="M7126 3462 c5 -4 22 -18 38 -32 l29 -25 -23 33 c-13 17 -31 32 -39
32 -8 0 -11 -3 -5 -8z"/>
<path d="M7530 3466 c0 -3 15 -15 33 -27 l32 -23 -24 27 c-22 24 -41 35 -41
23z"/>
<path d="M7195 3440 c3 -5 8 -10 11 -10 2 0 4 5 4 10 0 6 -5 10 -11 10 -5 0
-7 -4 -4 -10z"/>
<path d="M7520 3441 c0 -5 5 -13 10 -16 6 -3 10 -2 10 4 0 5 -4 13 -10 16 -5
3 -10 2 -10 -4z"/>
<path d="M7527 3390 c-3 -11 -2 -22 2 -24 4 -3 8 6 9 20 2 29 -4 31 -11 4z"/>
<path d="M7570 3391 c0 -5 5 -13 10 -16 6 -3 10 -2 10 4 0 5 -4 13 -10 16 -5
3 -10 2 -10 -4z"/>
<path d="M7496 3326 c3 -8 1 -17 -5 -21 -14 -8 4 -44 31 -63 19 -14 25 -62 8
-62 -5 0 -10 5 -10 12 0 6 -11 1 -24 -11 -15 -14 -30 -20 -38 -15 -7 4 -10 4
-6 -1 4 -4 18 -13 30 -19 26 -13 32 -52 8 -49 -10 2 -16 -5 -16 -16 0 -11 5
-17 13 -14 7 3 13 0 13 -6 0 -16 -22 -14 -48 5 -27 18 -29 4 -3 -20 14 -12 17
-27 15 -58 -4 -50 -7 -53 -34 -38 -32 17 -34 7 -9 -42 12 -23 21 -45 21 -48
-1 -3 11 -18 27 -35 26 -29 45 -105 23 -91 -6 3 -13 2 -17 -4 -6 -10 -2 -11
42 -14 12 0 28 -7 35 -15 11 -12 10 -13 -5 -8 -10 4 -15 3 -12 -2 3 -5 1 -12
-5 -16 -6 -4 -8 -11 -4 -16 3 -5 10 -7 15 -4 5 4 9 1 9 -4 0 -29 -82 2 -86 32
-3 20 -34 60 -41 53 -3 -2 3 -16 12 -30 10 -14 13 -26 8 -26 -5 0 -16 11 -23
25 -15 28 -30 33 -30 10 0 -9 -6 -12 -17 -8 -16 6 -15 3 2 -17 19 -22 19 -23
1 -16 -17 6 -17 5 -5 -10 13 -16 11 -17 -26 -11 l-40 6 28 -20 c16 -13 27 -30
27 -45 0 -13 5 -24 11 -24 6 0 8 8 4 19 -4 12 0 21 12 25 15 6 15 8 3 16 -13
8 -12 10 3 10 12 0 16 4 10 13 -4 6 6 1 23 -13 37 -30 41 -54 7 -45 -12 3 -23
1 -23 -4 0 -13 29 -35 37 -27 3 3 13 -3 20 -14 8 -11 19 -18 24 -15 5 3 6 0 3
-8 -3 -8 -1 -18 5 -22 6 -3 11 -14 11 -23 0 -12 -6 -9 -18 11 -20 32 -28 34
-37 6 -6 -19 -8 -19 -30 -5 -17 11 -25 12 -27 4 -3 -8 -12 -7 -28 5 -14 9 -32
17 -42 17 -22 0 -52 41 -37 51 7 4 5 9 -6 13 -9 3 -14 10 -10 15 9 15 -9 20
-21 6 -15 -16 58 -112 82 -107 8 2 22 -2 31 -9 8 -7 24 -15 36 -16 27 -4 33
-11 20 -24 -7 -7 -13 -8 -17 0 -8 13 -44 -21 -48 -45 -2 -14 4 -18 27 -19 17
0 36 -4 43 -8 16 -11 16 -29 -1 -25 -18 4 -20 -8 -8 -42 7 -21 14 -28 26 -24
9 4 24 -1 35 -11 23 -21 73 -13 64 10 -4 8 -3 15 0 15 4 0 11 -11 16 -25 6
-15 17 -25 30 -25 11 0 20 -7 20 -14 0 -16 67 -72 76 -64 3 3 -12 20 -32 37
-47 38 -37 52 16 22 40 -22 58 -12 20 11 -11 7 -20 16 -20 20 0 14 50 8 76 -9
25 -16 26 -16 22 8 -2 19 1 24 18 22 17 -2 21 2 17 17 -4 14 0 20 12 20 10 0
14 5 11 13 -3 6 -9 19 -12 28 -3 9 -16 22 -30 29 -13 7 -21 17 -18 22 3 4 -4
20 -15 34 -14 18 -21 22 -21 11 0 -8 6 -17 13 -20 6 -2 9 -8 5 -12 -5 -5 -24
8 -43 28 -20 21 -44 37 -54 37 -10 0 -26 11 -35 25 -14 22 -15 25 -1 25 8 0
15 5 15 10 0 6 -4 10 -10 10 -5 0 -12 0 -15 0 -3 0 -26 12 -51 25 -49 26 -66
26 -44 0 18 -22 -4 -19 -23 3 -18 19 -23 42 -9 42 15 0 80 -26 94 -38 8 -6 17
-9 20 -6 3 3 25 -5 49 -18 40 -20 41 -23 20 -28 l-23 -5 26 -14 c14 -8 26 -20
26 -28 0 -7 7 -13 15 -13 12 0 13 4 5 19 -14 28 -13 51 4 51 16 0 -27 49 -59
68 -12 7 -14 12 -6 12 11 0 11 3 1 15 -7 9 -11 18 -8 20 9 9 38 -7 38 -20 0
-8 5 -17 11 -21 8 -5 10 1 7 18 -2 13 1 29 8 36 11 10 20 6 44 -18 34 -33 53
-41 26 -11 -15 16 -15 19 -1 24 18 8 44 -1 68 -22 17 -14 18 -13 13 14 -3 17
-10 31 -15 33 -6 2 -8 9 -5 17 6 15 -41 65 -61 65 -8 0 -15 4 -15 8 0 5 -8 18
-17 30 -43 51 -51 66 -58 98 -4 24 -11 34 -25 34 -24 0 -36 18 -21 33 8 8 11
6 11 -7 0 -10 5 -14 11 -10 6 3 8 17 4 33 -8 34 9 18 33 -30 9 -19 20 -32 23
-29 3 3 12 1 20 -5 8 -5 5 -1 -8 10 -29 26 -30 41 -1 21 35 -25 44 -19 14 9
-15 14 -29 25 -32 25 -9 0 -60 54 -72 77 -7 12 -12 31 -12 42 0 12 -7 21 -15
21 -8 0 -16 8 -17 18 0 9 -2 22 -2 29 -1 7 -7 18 -14 25 -9 9 -12 7 -12 -14 0
-15 6 -29 13 -32 6 -3 3 -5 -8 -3 -15 2 -21 11 -23 41 -2 21 -12 48 -23 59
-10 11 -17 23 -14 25 3 3 14 -7 26 -22 11 -14 30 -31 42 -37 21 -11 21 -10 -2
15 -14 14 -19 26 -13 26 7 0 12 6 12 14 0 8 6 17 13 19 9 4 9 6 -1 6 -7 1 -15
-5 -18 -13 -7 -18 -52 2 -60 27 -3 9 -9 17 -14 17 -5 0 -7 -6 -4 -14z m34
-178 c0 -13 -23 -5 -28 10 -2 7 2 10 12 6 9 -3 16 -11 16 -16z m69 -48 c0 -10
-3 -8 -9 5 -12 27 -12 43 0 25 5 -8 9 -22 9 -30z m36 -30 c3 -5 1 -10 -4 -10
-6 0 -11 5 -11 10 0 6 2 10 4 10 3 0 8 -4 11 -10z m-135 -60 c0 -5 -2 -10 -4
-10 -3 0 -8 5 -11 10 -3 6 -1 10 4 10 6 0 11 -4 11 -10z m-10 -45 c0 -8 -2
-15 -4 -15 -2 0 -6 7 -10 15 -3 8 -1 15 4 15 6 0 10 -7 10 -15z m-4 -110 c9
-40 -7 -25 -41 40 l-26 50 30 -30 c16 -16 33 -43 37 -60z m38 69 c17 -17 21
-34 8 -34 -5 0 -14 11 -20 25 -13 29 -10 31 12 9z m140 0 c4 -10 1 -14 -6 -12
-15 5 -23 28 -10 28 5 0 13 -7 16 -16z m-80 -85 c4 6 2 18 -4 26 -10 12 -9 15
4 15 17 0 21 -26 7 -49 -8 -12 -12 -13 -26 -1 -9 7 -21 23 -26 34 -7 13 -1 9
13 -8 17 -20 27 -26 32 -17z m-64 16 c7 -8 8 -15 2 -15 -5 0 -15 7 -22 15 -7
8 -8 15 -2 15 5 0 15 -7 22 -15z m200 -30 c0 -8 -4 -15 -10 -15 -5 0 -10 7
-10 15 0 8 5 15 10 15 6 0 10 -7 10 -15z m17 -47 c36 -15 73 -48 73 -65 0 -20
-14 -16 -44 12 -15 14 -30 25 -34 25 -4 0 -13 9 -20 20 -14 23 -12 24 25 8z
m-202 -28 c3 -5 1 -10 -4 -10 -6 0 -11 5 -11 10 0 6 2 10 4 10 3 0 8 -4 11
-10z m225 -62 c0 -12 -10 -9 -26 6 -20 21 -17 28 6 14 11 -7 20 -16 20 -20z
m-310 -40 c0 -16 -16 -7 -34 19 l-20 27 27 -20 c14 -10 27 -22 27 -26z m169
-192 c26 -27 40 -34 60 -30 21 4 31 -2 54 -30 29 -38 28 -43 -5 -25 -11 6 -34
12 -51 15 -18 2 -42 15 -55 29 -12 15 -27 23 -33 19 -8 -4 6 -23 37 -51 47
-43 48 -44 19 -38 -16 3 -37 15 -47 25 -9 11 -20 20 -24 20 -4 0 -3 -5 4 -12
24 -24 11 -28 -18 -6 -16 12 -30 31 -30 41 0 20 0 20 21 1 20 -18 20 -18 13
10 -5 22 -4 27 6 21 10 -6 11 -2 6 19 -9 35 3 33 43 -8z m-124 -6 c3 -5 1 -10
-4 -10 -6 0 -11 5 -11 10 0 6 2 10 4 10 3 0 8 -4 11 -10z m-30 -52 l7 -23 7
25 7 25 19 -30 c29 -45 65 -80 84 -81 30 -2 73 -36 62 -47 -8 -8 -15 -7 -23 1
-7 7 -20 12 -30 12 -11 0 -30 11 -44 25 -14 14 -31 25 -39 25 -12 0 -75 70
-75 84 0 16 18 3 25 -16z m10 -59 c11 -17 -1 -21 -15 -4 -8 9 -8 15 -2 15 6 0
14 -5 17 -11z m231 -40 c6 -10 -17 -12 -40 -3 -9 3 -14 10 -11 14 6 10 43 1
51 -11z"/>
<path d="M7600 3333 c0 -5 9 -18 20 -28 11 -10 20 -14 20 -8 0 5 -9 18 -20 28
-11 10 -20 14 -20 8z"/>
<path d="M7758 3333 c7 -3 16 -2 19 1 4 3 -2 6 -13 5 -11 0 -14 -3 -6 -6z"/>
<path d="M7897 3329 c7 -7 15 -10 18 -7 3 3 -2 9 -12 12 -14 6 -15 5 -6 -5z"/>
<path d="M7177 3301 c3 -12 9 -21 14 -21 14 0 11 16 -5 29 -12 10 -13 8 -9 -8z"/>
<path d="M7716 3279 c3 -5 10 -9 17 -9 6 0 22 -12 35 -27 l24 -28 -21 35 c-12
20 -29 35 -40 36 -11 1 -18 -3 -15 -7z"/>
<path d="M7685 3205 c17 -13 33 -24 38 -25 4 0 7 -6 7 -13 0 -7 14 -26 30 -42
17 -16 30 -33 30 -39 0 -5 10 -20 22 -33 l21 -23 19 22 c10 11 18 26 17 32 0
6 -3 6 -6 -1 -9 -25 -39 -12 -76 32 -44 53 -31 62 14 10 17 -19 36 -35 41 -35
6 0 -4 16 -21 35 -17 19 -38 49 -46 65 -9 17 -20 30 -25 30 -6 0 -3 -11 5 -24
25 -38 -2 -37 -44 1 -20 18 -40 33 -46 33 -5 0 4 -11 20 -25z"/>
<path d="M7637 3171 c15 -29 32 -61 38 -71 5 -11 13 -20 18 -20 8 0 -10 41
-23 50 -3 3 -13 23 -21 44 -8 22 -20 41 -27 44 -8 2 -1 -18 15 -47z"/>
<path d="M7394 3201 c7 -11 46 -35 46 -28 0 3 -12 12 -26 22 -15 9 -23 12 -20
6z"/>
<path d="M7160 3170 c0 -5 5 -10 11 -10 5 0 7 5 4 10 -3 6 -8 10 -11 10 -2 0
-4 -4 -4 -10z"/>
<path d="M7216 3141 c-4 -5 -3 -16 0 -25 6 -15 8 -15 19 1 13 18 11 33 -5 33
-5 0 -11 -4 -14 -9z"/>
<path d="M8005 3141 c-3 -5 -2 -12 3 -15 5 -3 9 1 9 9 0 17 -3 19 -12 6z"/>
<path d="M7729 3098 c-1 -7 -3 -25 -5 -40 -1 -15 2 -30 7 -34 6 -3 7 7 4 25
-6 35 4 40 23 11 17 -28 34 -26 21 3 -13 29 -48 53 -50 35z"/>
<path d="M7140 3053 c0 -21 3 -24 9 -14 5 8 7 20 4 28 -8 21 -13 15 -13 -14z"/>
<path d="M7888 3057 c-5 -26 0 -47 12 -47 4 0 6 10 3 23 l-5 22 21 -24 c12
-13 23 -22 26 -20 2 3 -9 19 -24 37 -28 31 -29 32 -33 9z"/>
<path d="M7172 3035 c-15 -33 -15 -68 0 -83 17 -17 33 -15 19 2 -8 10 -10 30
-6 60 8 52 4 58 -13 21z"/>
<path d="M7270 3050 c0 -5 5 -10 11 -10 5 0 7 5 4 10 -3 6 -8 10 -11 10 -2 0
-4 -4 -4 -10z"/>
<path d="M7400 3052 c0 -6 -12 -15 -27 -21 -27 -11 -27 -11 8 -7 20 2 42 -1
48 -7 7 -7 11 -7 11 -1 0 6 -9 19 -20 29 -11 10 -20 13 -20 7z"/>
<path d="M7800 3024 c0 -5 7 -18 15 -28 12 -16 15 -17 15 -4 0 8 -7 21 -15 28
-8 7 -15 9 -15 4z"/>
<path d="M7760 3001 c0 -5 7 -12 16 -15 14 -5 15 -4 4 9 -14 17 -20 19 -20 6z"/>
<path d="M7076 2964 c-9 -22 3 -32 14 -14 12 19 12 30 1 30 -5 0 -12 -7 -15
-16z"/>
<path d="M7109 2958 c-11 -52 -5 -77 27 -114 l35 -39 -25 40 c-14 22 -26 57
-28 78 -2 30 -6 47 -9 35z"/>
<path d="M7155 2930 c-7 -11 25 -59 39 -60 5 0 1 9 -8 19 -13 14 -14 20 -5 23
7 2 9 10 5 16 -9 15 -23 15 -31 2z"/>
<path d="M7796 2928 c7 -11 34 -10 34 1 0 6 -9 9 -19 8 -11 0 -17 -5 -15 -9z"/>
<path d="M7060 2904 c0 -8 5 -12 10 -9 6 3 10 10 10 16 0 5 -4 9 -10 9 -5 0
-10 -7 -10 -16z"/>
<path d="M7700 2906 c0 -3 16 -13 36 -21 59 -24 92 -17 62 13 -15 15 -31 16
-22 1 7 -12 -23 -9 -58 6 -10 4 -18 4 -18 1z"/>
<path d="M7920 2897 c0 -19 57 -87 74 -87 8 0 8 2 0 8 -6 4 -14 16 -18 28 -3
11 -18 31 -31 44 -20 19 -25 20 -25 7z"/>
<path d="M7043 2860 c-11 -16 -10 -21 5 -29 14 -7 17 -4 18 20 1 34 -6 37 -23
9z"/>
<path d="M7244 2871 c7 -11 46 -35 46 -28 0 3 -12 12 -26 22 -15 9 -23 12 -20
6z"/>
<path d="M7754 2852 c7 -12 96 -74 96 -67 0 10 -54 54 -67 55 -7 0 -13 5 -13
10 0 6 -5 10 -11 10 -5 0 -8 -3 -5 -8z"/>
<path d="M7870 2850 c0 -5 5 -10 10 -10 6 0 10 5 10 10 0 6 -4 10 -10 10 -5 0
-10 -4 -10 -10z"/>
<path d="M7249 2786 c9 -19 20 -30 25 -26 4 5 0 20 -10 34 -27 36 -34 32 -15
-8z"/>
<path d="M7285 2812 c6 -4 21 -22 34 -40 13 -18 25 -31 28 -28 7 7 -48 76 -61
76 -7 0 -8 -3 -1 -8z"/>
<path d="M7111 2778 c1 -18 3 -25 6 -15 4 16 7 16 34 -4 40 -28 35 -10 -7 24
l-34 29 1 -34z"/>
<path d="M7377 2775 c6 -32 11 -41 17 -34 2 2 -2 18 -10 34 l-13 30 6 -30z"/>
<path d="M7282 2738 c2 -5 7 -9 11 -8 5 0 17 -9 28 -22 l19 -23 -11 27 c-10
24 -54 49 -47 26z"/>
<path d="M7070 2649 c-15 -28 -7 -34 14 -10 11 12 13 21 7 25 -5 4 -15 -3 -21
-15z"/>
<path d="M7310 2608 c12 -21 19 -42 16 -47 -6 -8 15 -21 35 -21 12 0 -9 35
-44 74 l-29 31 22 -37z"/>
<path d="M7120 2625 c0 -5 5 -17 10 -25 5 -8 10 -10 10 -5 0 6 -5 17 -10 25
-5 8 -10 11 -10 5z"/>
<path d="M7810 2606 c0 -10 82 -68 87 -62 8 8 -57 65 -74 66 -7 0 -13 -2 -13
-4z"/>
<path d="M8030 2601 c0 -6 5 -13 10 -16 6 -3 10 1 10 9 0 9 -4 16 -10 16 -5 0
-10 -4 -10 -9z"/>
<path d="M7795 2551 c-4 -7 -2 -17 3 -24 5 -7 11 -20 13 -29 3 -12 8 -15 18
-9 12 8 11 14 -6 41 -13 21 -23 28 -28 21z"/>
<path d="M8014 2506 c23 -18 36 -20 36 -6 0 6 -4 10 -9 10 -5 0 -18 3 -28 6
-16 5 -16 4 1 -10z"/>
<path d="M7260 2495 c0 -8 75 -74 79 -69 6 5 -60 74 -71 74 -4 0 -8 -2 -8 -5z"/>
<path d="M8004 2469 c-4 -7 1 -16 10 -21 9 -5 16 -15 16 -22 0 -17 27 -29 35
-16 4 6 14 5 25 -2 11 -7 22 -9 26 -6 11 12 -7 28 -32 28 -13 0 -24 3 -24 8 0
4 -11 15 -25 25 -17 12 -26 14 -31 6z"/>
<path d="M8157 2463 c-4 -3 -7 -16 -7 -28 0 -11 -5 -26 -11 -32 -8 -8 -8 -13
0 -17 6 -4 15 4 21 19 5 14 17 28 25 31 12 5 13 9 4 20 -13 15 -22 18 -32 7z"/>
<path d="M8220 2421 c0 -21 13 -41 26 -41 21 0 17 28 -6 40 -12 6 -20 7 -20 1z"/>
<path d="M7915 2350 c-8 -13 15 -24 27 -12 6 6 4 11 -6 15 -8 3 -18 2 -21 -3z"/>
<path d="M8160 2350 c8 -5 24 -9 35 -9 l20 0 -20 9 c-11 5 -27 9 -35 9 -13 1
-13 0 0 -9z"/>
<path d="M7190 2339 c0 -5 5 -7 10 -4 6 3 10 8 10 11 0 2 -4 4 -10 4 -5 0 -10
-5 -10 -11z"/>
<path d="M7890 2317 c0 -15 -4 -27 -10 -27 -5 0 -10 -4 -10 -10 0 -15 40 -12
41 3 2 21 -2 42 -12 52 -5 5 -9 -1 -9 -18z"/>
<path d="M7950 2248 c0 -9 5 -20 11 -23 17 -11 20 0 4 21 -13 17 -14 17 -15 2z"/>
<path d="M7825 2220 c3 -5 10 -10 16 -10 5 0 9 5 9 10 0 6 -7 10 -16 10 -8 0
-12 -4 -9 -10z"/>
<path d="M8097 2223 c-11 -10 24 -43 45 -43 23 0 23 12 0 33 -20 18 -34 21
-45 10z"/>
<path d="M7470 2206 c0 -2 19 -19 43 -37 l42 -33 -34 37 c-31 33 -51 46 -51
33z"/>
<path d="M7755 2200 c3 -5 13 -10 21 -10 8 0 14 5 14 10 0 6 -9 10 -21 10 -11
0 -17 -4 -14 -10z"/>
<path d="M7230 2187 c0 -8 6 -20 14 -26 12 -10 13 -8 9 9 -7 25 -23 37 -23 17z"/>
<path d="M8050 2190 c0 -5 5 -10 11 -10 5 0 7 5 4 10 -3 6 -8 10 -11 10 -2 0
-4 -4 -4 -10z"/>
<path d="M7860 2180 c0 -5 9 -10 21 -10 11 0 17 5 14 10 -3 6 -13 10 -21 10
-8 0 -14 -4 -14 -10z"/>
<path d="M7632 2133 c15 -15 31 -23 35 -19 9 8 -32 46 -50 46 -7 0 1 -12 15
-27z"/>
<path d="M7450 2099 c0 -8 9 -20 20 -27 11 -7 20 -8 20 -4 0 5 -9 17 -20 27
-15 14 -20 15 -20 4z"/>
<path d="M946 2015 c4 -8 8 -15 10 -15 2 0 4 7 4 15 0 8 -4 15 -10 15 -5 0 -7
-7 -4 -15z"/>
<path d="M892 1995 c4 -5 3 -14 -2 -20 -8 -9 -4 -12 15 -12 31 0 32 8 3 26
-13 7 -20 10 -16 6z"/>
<path d="M942 1959 c2 -25 -1 -34 -12 -34 -8 0 -14 6 -12 13 2 9 -4 12 -17 7
-11 -3 -22 -1 -26 5 -3 5 -13 10 -22 10 -13 0 -14 -2 -2 -17 13 -15 12 -16 -8
-11 -13 4 -23 2 -23 -3 0 -5 -5 -9 -11 -9 -7 0 -18 -8 -25 -17 -13 -17 -14
-17 -8 -1 9 25 -40 20 -56 -5 -9 -15 -9 -17 1 -11 7 4 4 -6 -8 -22 -25 -36
-35 -75 -23 -94 6 -9 5 -17 -3 -22 -8 -5 -4 -8 10 -8 12 0 24 6 26 13 4 9 8 8
16 -3 9 -13 11 -13 11 2 0 12 5 15 17 11 11 -4 14 -3 9 5 -4 7 -1 12 8 12 25
0 19 20 -6 21 -17 1 -19 2 -5 6 9 2 17 10 17 16 0 7 8 3 17 -8 12 -15 14 -16
10 -3 -7 19 15 42 29 30 4 -4 2 1 -6 12 -13 16 -12 20 3 31 9 7 17 17 17 24 0
6 3 11 8 12 4 0 15 2 25 4 12 2 17 -3 17 -17 0 -19 3 -18 30 10 34 36 36 44
14 63 -14 11 -15 9 -12 -22z"/>
<path d="M7555 1970 c3 -5 10 -10 16 -10 5 0 9 5 9 10 0 6 -7 10 -16 10 -8 0
-12 -4 -9 -10z"/>
<path d="M7740 1940 c0 -5 5 -10 11 -10 5 0 7 5 4 10 -3 6 -8 10 -11 10 -2 0
-4 -4 -4 -10z"/>
<path d="M7195 1900 c-3 -5 -1 -10 4 -10 6 0 11 5 11 10 0 6 -2 10 -4 10 -3 0
-8 -4 -11 -10z"/>
<path d="M7507 1883 c-10 -9 13 -33 32 -32 10 0 11 2 4 6 -7 2 -13 11 -13 19
0 15 -12 19 -23 7z"/>
<path d="M7700 1880 c0 -5 7 -10 16 -10 8 0 12 5 9 10 -3 6 -10 10 -16 10 -5
0 -9 -4 -9 -10z"/>
<path d="M850 1870 c0 -5 5 -10 11 -10 5 0 7 5 4 10 -3 6 -8 10 -11 10 -2 0
-4 -4 -4 -10z"/>
<path d="M7598 1845 c5 -28 14 -31 31 -12 8 10 7 17 -1 25 -20 20 -36 14 -30
-13z"/>
<path d="M7640 1810 c-12 -7 -12 -12 -3 -21 9 -9 16 -9 28 1 29 24 9 42 -25
20z"/>
<path d="M7385 1790 c3 -5 8 -10 11 -10 2 0 4 5 4 10 0 6 -5 10 -11 10 -5 0
-7 -4 -4 -10z"/>
<path d="M7570 1770 c0 -5 7 -10 16 -10 8 0 12 5 9 10 -3 6 -10 10 -16 10 -5
0 -9 -4 -9 -10z"/>
<path d="M8070 1670 c0 -5 5 -10 11 -10 5 0 7 5 4 10 -3 6 -8 10 -11 10 -2 0
-4 -4 -4 -10z"/>
<path d="M1206 1513 c-6 -14 -5 -15 5 -6 7 7 10 15 7 18 -3 3 -9 -2 -12 -12z"/>
<path d="M1150 1500 c0 -5 5 -10 11 -10 5 0 7 5 4 10 -3 6 -8 10 -11 10 -2 0
-4 -4 -4 -10z"/>
<path d="M2078 1213 c6 -2 18 -2 25 0 6 3 1 5 -13 5 -14 0 -19 -2 -12 -5z"/>
<path d="M4924 138 c-8 -27 10 -45 31 -28 21 17 19 37 -5 43 -13 3 -21 -1 -26
-15z"/>
<path d="M4780 10 c18 -12 30 -13 30 -2 0 4 -10 9 -22 9 -18 2 -20 0 -8 -7z"/>
</g>
</svg>
