<?xml version="1.0" standalone="no"?>
<!DOCTYPE svg PUBLIC "-//W3C//DTD SVG 20010904//EN"
 "http://www.w3.org/TR/2001/REC-SVG-20010904/DTD/svg10.dtd">
<svg version="1.0" xmlns="http://www.w3.org/2000/svg"
 width="300.000000pt" height="300.000000pt" viewBox="0 0 300.000000 300.000000"
 preserveAspectRatio="xMidYMid meet">
<metadata>
Created by potrace 1.11, written by Peter Selinger 2001-2013
</metadata>
<g transform="translate(0.000000,300.000000) scale(0.100000,-0.100000)"
fill="#000000" stroke="none">
<path d="M1082 2640 c-68 -10 -127 -22 -131 -26 -4 -5 -88 -312 -187 -682 -98
-370 -180 -667 -181 -660 -2 7 21 281 51 608 29 327 52 597 50 599 -3 3 -358
-62 -496 -91 l-48 -10 0 -176 c0 -408 -42 -1033 -106 -1575 -14 -120 -24 -220
-22 -222 4 -5 599 102 605 109 2 2 62 214 133 472 71 258 129 462 129 454 1
-8 -22 -235 -49 -505 -28 -269 -50 -492 -50 -496 0 -6 609 95 635 105 6 2 19
46 28 97 95 502 293 1185 541 1868 16 43 16 43 -7 38 -12 -3 -136 -22 -276
-43 -226 -34 -254 -41 -261 -59 -4 -11 -92 -354 -196 -762 -103 -408 -189
-741 -191 -739 -2 1 40 384 92 850 52 465 95 851 95 856 0 12 -5 12 -158 -10z"/>
<path d="M2640 2544 c-134 -36 -296 -151 -481 -340 -257 -264 -420 -512 -480
-729 -46 -169 -22 -280 76 -340 47 -29 52 -30 169 -29 90 0 155 7 254 27 199
41 290 35 314 -18 25 -54 -30 -117 -152 -174 -164 -77 -271 -78 -412 -3 -7 3
-21 -25 -144 -300 -46 -103 -84 -192 -84 -198 0 -15 90 -55 165 -75 221 -57
501 63 770 330 258 256 379 566 299 766 -49 120 -203 155 -478 108 -206 -35
-276 -15 -262 74 9 57 42 113 93 164 68 66 154 103 203 88 25 -8 50 -54 50
-95 0 -17 5 -30 13 -30 6 0 104 36 217 79 l205 79 8 54 c13 81 2 334 -16 393
-50 157 -160 214 -327 169z"/>
</g>
</svg>
